<?xml version="1.0" encoding="UTF-8"?>
<svg id="_레이어_2" data-name="레이어 2" xmlns="http://www.w3.org/2000/svg" viewBox="0 0 5266.47 2637.62">
  <defs>
    <style>
      .cls-1 {
        fill: #fff;
        stroke-width: 0px;
      }
    </style>
  </defs>
  <g id="_레이어_9" data-name="레이어 9">
    <g>
      <path class="cls-1" d="m2840.7,46.82c1.02,4.37-.42,7.88-4.27,10.26-1.12.69-2.37,1.28-3.65,1.57-6.7,1.56-13.4,3.01-20.13,4.07-13.53,2.15-27.15,2.71-40.97-.63-4.49-1.08-8.9-2.76-13.08-4.73-12.18-5.72-24.32-4.65-36.55-1.09,0,.72.01,1.44.02,2.16,10.56,3.79,21.14,7.54,31.68,11.38,11.24,4.09,22.48,8.2,33.66,12.43,3.1,1.17,6.25,2.47,8.97,4.31,7.25,4.9,6.74,14.31-.81,18.84-6.68,4-32.69,1.76-38.33-3.67-2.06-1.98-3.48-4.82-4.62-7.51-3.8-8.9-7.46-10.82-16.05-6.38-7.05,3.65-13.56,8.38-20.17,12.83-4.14,2.78-7.86,6.19-12.04,8.88-19.12,12.33-36.02,9.39-51.67-6.99-9.35-9.79-20.45-17.92-30.85-26.68-3.05-2.57-6.69-4.46-9.58-7.16-6.74-6.28-4.53-15.17,4.44-17.47,2.33-.6,4.85-.78,7.34-.69,1.18.04,2.35.15,3.49.29,8.57,1.08,17.04,3.04,25.63,3.89,4.48.44,10.17.84,13.49-1.42,10.43-7.11,21.44-5.73,32.74-4.7,4.24.38,8.88.94,12.77-.32.91-.3,1.82-.63,2.73-.99,3.94-1.59,7.8-3.86,10.69-6.74,4.28-4.27,8.62-6.29,14.22-4.72,21.82,6.12,44.04,5.78,66.39,4.93,1.38-.05,2.76-.08,4.14-.08,7.58,0,15.18.7,22.78,1.01,3.55.15,6.67,1.16,7.59,5.12Z"/>
      <path class="cls-1" d="m2358.16,571.18c1.79,5.61,4.18,11.47,4.05,17.17-.36,14.61-6.19,27.9-14.19,39.76-3.03,4.5-9.2,7.76-14.61,9.56-2.26.75-4.55,1.43-6.87,2.05-6.94,1.85-14.07,3.14-21.16,4.3-9.84,1.62-13.42-1.84-13.57-11.77-.03-1.65,0-3.31,0-4.97-.31-.08-.61-.17-.91-.26,2.63-11.6,5.12-23.24,7.96-34.8,1.13-4.6,3.66-8.17,8.34-10.48,3.04-1.51,5.67-4.43,7.71-7.27,6.18-8.66,16.2-13.19,26.05-12.54,4.41.3,8.79,1.63,12.77,4.11,1.86,1.16,3.8,3.14,4.43,5.14Z"/>
      <path class="cls-1" d="m2166.69,450.37c10.51,13.61,8.14,27.88-6.67,36.34-16.4,9.36-33.55,17.43-50.5,25.82-9.19,4.55-18.59,4.3-27.89-.09-2.09-.99-4.32-1.7-6.42-2.71-10.33-4.95-20.91-8.57-32.11-6.03-7.1-12.78-13.68-24.22-19.86-35.88-2.3-4.32-3.46-8.2-3.46-11.8-.01-5.69,2.87-10.69,8.69-15.63,3.02-2.56,6.49-4.61,9.84-6.75,4.43-2.83,8.43-2.72,12.58,1.12,11.68,10.8,25.63,11.49,40.21,8.1,10.65-2.49,21.15-5.68,31.85-7.95.74-.16,1.49-.29,2.23-.41,9.65-1.52,19.14.34,27.79,4.78,5.15,2.65,10.2,6.54,13.72,11.09Z"/>
      <path class="cls-1" d="m933.86,325.28c7.95,4.52,8.68,8.19,4.67,16.52-8.68,18.04-22.96,25.04-42.63,20.59-11.03-2.5-21.96-6.3-33.41-4.65-4.23.61-8.45,1.31-12.66,2.07-7.87,1.42-15.7,3.06-23.52,4.73-8.45,1.79-16.69,4.52-25.13,6.32-14.98,3.2-28.52.75-39.11-11.38-3.51-4.02-7.78-5.45-13.17-5.75-5.48-.31-10.45-1.22-14.9-2.71-15.87-5.33-25.1-18.14-27.48-37.94-.45-3.71-.79-6.55-1.25-8.79-1.49-7.28-4.17-8.04-15.62-11.32-8.77-2.52-16.91-4.17-25.29,2.58-1.73,1.39-3.65,2.56-5.67,3.59-4.44,2.27-9.4,3.91-13.98,5.97-8.41,3.8-16.27,2.13-23.57-2.95-8.16-5.69-16.22-11.52-25.06-17.8.51-3.44.43-7.56,1.77-11.16,5.09-13.69,9.98-27.52,16.19-40.7,5.45-11.58,14.61-15.93,26.26-13.02,1.4.35,2.84.8,4.31,1.36,12.03,4.58,24.45,5.9,37.06,7.21,11.2,1.17,22.49,2.79,33.31,5.78,7.19,1.98,14.48,5.67,20.18,10.45,10.44,8.73,22.3,13.27,35.31,15.05,14.17,1.95,28.47,3.02,42.72,4.41,12.59,1.22,23.65-2.49,33.43-10.4,4.4-3.55,8.81-7.14,13.49-10.3,7.99-5.4,16.35-4.98,24.56-.45,5.69,3.13,7.19,6.08,4.9,12.35-3.48,9.52-3.15,18.9-1.05,28.51,3.26,14.96,11.48,25.98,25.52,32.46,6.63,3.07,13.49,5.76,19.82,9.37Z"/>
      <path class="cls-1" d="m861.38,186.04c10.08-2.7,15.91,1.92,15.63,12.38-.17,6.82-2.71,10.15-9.96,11.55-21.21,4.12-42.47,8.01-63.72,11.9-10.14,1.85-20.3,3.59-30.48,5.18-3.27.51-6.62.52-10.29.73-.25.01-.5.02-.75.04-.86-2.45-1.25-3.35-1.5-4.3-3.31-12.17-7.22-14.74-19.32-12.57-9.86,1.76-19.7,1.88-29.56.68-2.86-10.12,5.37-17.44,4.88-27.44-1.95,1.77-3.32,2.7-4.28,3.94-8.01,10.38-18.67,11.94-30.51,9.01-5.79-1.43-11.34-4.15-17.19-5.05-3.84-.59-7.75-1.08-11.66-1.31-3.66-.22-7.33-.2-10.92.18-5.17.56-7.72-.95-9.19-5.07-1.46-4.11-.74-7.94,3.49-10.34.86-.49,1.77-.93,2.69-1.28,16.75-6.43,33.48-12.92,50.27-19.24,10.62-4,21.44-7.28,32.94-7.25,3.24.01,6.47.4,9.93.63,1.02,4.66,1.66,8.57,2.74,12.36,1.54,5.43,4.21,8.15,8.11,8.15,1.8,0,3.86-.57,6.2-1.73,4.66-2.3,9-5.23,13.44-7.85.86,1.35,1.55,1.92,1.48,2.39-2.13,14.34.36,17.74,13.88,21.18,6.01,1.53,11.71,4.36,17.47,6.81,3.96,1.69,7.61,4.26,11.69,5.53,7.89,2.45,11.62-1.41,9.42-9.26-.36-1.27-1.23-2.41-1.49-3.68-1.25-6.14,3.18-12.61,10.27-15.21,5.17-1.89,7.78-.61,11.9,5.9,1.07,1.68,1.96,3.48,3.09,5.13,5.9,8.58,11.35,10.59,21.3,7.91Z"/>
      <path class="cls-1" d="m819.78,128.34c1.37,11.39-5.58,22.43-16.86,26.53-5.22,1.9-10.48,2.8-15.87,2.8s-10.72-.87-16.36-2.5c-.62-2.11-1.09-4.05-1.76-5.92-1.48-4.16-4.38-5.6-8.62-4.24-1.58.51-3.14,1.12-4.75,1.52-3.57.89-6.29-.77-6.63-4.09-.22-2.13,1.06-5.73,2.71-6.53,6.02-2.94,12.01-6.08,18.11-8.85,5.08-2.32,10.23-4.39,15.53-5.89,8.66-2.44,18.42-1.26,27.68-1.2,5.02.04,6.31,4.16,6.82,8.37Z"/>
      <path class="cls-1" d="m1003.65,267.25c5.62,6.5,5.27,12.2-.3,18.88-7.26,8.71-17.57,13-27.51,17.52-4.12,1.87-8.11-.43-11.89-3.21-4.83-3.54-9.74-6.98-14.67-10.37-6-4.13-12.03-8.2-18.03-12.33-.82-.56-1.73-.99-2.57-1.53-9.68-6.14-10.86-12.05-4.04-21.5,1.66-2.31,3.45-4.43,5.38-6.38,5.78-5.85,12.77-10.07,20.96-12.41,12.53-3.57,25.23-6.53,38.22-2.1,6.74,2.3,8.89,5.77,8.36,13.82-3.33,7.46.75,13.44,6.09,19.61Z"/>
      <path class="cls-1" d="m967.34,133.12c1.81,4.14,2.89,8.97-.63,12.1-2.29,2.03-7.09,3.27-9.9,2.31-8.65-2.96-15.43.14-22.53,4.32-9.99,5.87-15.48,6.1-14.42-8.16.65-8.82-2.13-10.3-14.12-9.34-9.63.77-21-5.84-24.92-14.51-4.11-9.06,1.63-18,11.62-17.8,2.94.06,5.98.67,8.77,1.62,17.91,6.1,35.81,12.25,53.61,18.66,5.39,1.94,10.09,5.23,12.52,10.8Z"/>
      <path class="cls-1" d="m973.57,170.38c12.35.91,17.52,7.66,17.16,20.02-.23,6.88-2.36,13.16-6.85,18.34-4.37,5.04-9.76,8.02-16.81,5.86-15.88-4.88-31.92-9.29-47.58-14.79-7.42-2.6-14.47-6.74-21.02-11.17-6.23-4.22-6.91-9.16-3.71-14.66,3.13-5.37,8.18-7.53,14.55-4.01,14.02,7.77,27.96,6.3,42.57,2.52,6.97-1.81,14.53-2.64,21.69-2.11Z"/>
      <path class="cls-1" d="m1079.48,235.05c6.71,1.82,8.51,4.84,7.8,11.73-.62,6.07-3.55,11.27-8.67,13.92-13.25,6.85-26.77,13.26-40.52,19.03-3.07,1.29-8.2.35-11.23-1.47-11.65-7-15.3-25.76-7.51-37.06,3.37-4.88,7.49-9.23,12.28-15.07-4.79-2.26-8.78-4.28-12.88-6.03-3.97-1.7-8.29-2.69-12.02-4.76-6.01-3.35-7.74-9.33-5.16-15.43,2.08-4.91,5.38-6.08,12.48-5.31,6.25.67,12.56,1.06,18.84,1.05,8.81-.02,12.06,2.14,14,10.76.73,3.22.97,6.57,1.23,9.88.8,10.09,2.84,12.43,12.9,14.61,6.16,1.34,12.38,2.5,18.46,4.15Z"/>
      <path class="cls-1" d="m1233.4,196.96c6.48,1.81,8.04,4.5,6.9,10.99-1.61,9.15-7.79,15.5-17.1,17.18-2.91.53-5.96.53-8.94.49-40.61-.54-81.21-.96-121.81-1.77-21.23-.42-30.3-10.97-32.39-27.01-1.41-10.81-6.91-14.64-17.84-14.77-5.99-.07-11.99.37-17.97.11-10.39-.43-14.95-4.37-17.16-14.6-.7-3.24-1-6.6-1.09-9.91-.22-8.22-4.2-13.61-11.54-17.1-3.56-1.69-6.95-3.98-9.95-6.55-3.89-3.33-4.95-7.64-2.8-12.61,1.82-4.2,4.74-6.51,9.34-5.58,7.46,1.51,14.99,2.87,22.21,5.2,2.26.73,4.35,2.13,6.34,3.7,1.19.94,2.35,1.95,3.49,2.9,3.83,3.19,7.03,7.16,11.01,10.12,3.94,2.92,8.5,5,13.4,7.8-3.05,12.03-15.39,7.89-22.91,12.79,4.72,5.25,10.78,7.11,16.59,9.09,5.64,1.92,11.53,3.13,17.34,4.55,11.73,2.88,22.66,7.22,32.47,14.62,11.15,8.4,24.19,12.27,38.07,13.39.24.02.48.04.72.05,16.17,1.24,32.18-.14,47.67-4.82,18.98-5.73,37.46-3.42,55.95,1.74Z"/>
      <path class="cls-1" d="m2180.44,48.23c4.21,1.8,6.64,5.55,6.13,10.48-.51,4.89-3.78,7.57-8.01,9.32-1.53.64-3.09,1.3-4.7,1.67-29.37,6.8-55.22,20.97-79.66,38.07-6.55,4.58-12.86,9.5-19.46,14-3.93,2.68-8.36,4.82-6.78,10.76,1.44,5.4,5.99,5.32,10.36,5.87,6.82.86,14.58,6.28,19.94,12.92,3.21,3.99,5.56,8.41,6.31,12.55.1.58-.3,1.26-.63,2.52-1.78.66-3.9,1.4-5.99,2.22-10.79,4.24-14.8,10.51-11.79,21.86,3.34,12.63,2.98,24.88.48,37.5-2.78,14.04-10.47,22.64-24.72,25.08-5.56.96-11.11,1.94-17.48,3.06,1.46,2.17,2.33,3.87,3.58,5.24,4.72,5.19,6.41,10.68,2.72,17.27-2.48,4.43-1.68,9.03.37,13.45.7,1.51,1.51,2.97,2.4,4.38,10.69,16.85,4.73,35.18-11.98,44.27-30.44,16.54-61.41,32-95.44,39.99-5.78,1.36-11.61,2.71-17.47,3.65-2.67.43-5.34.78-8.02,1-10.48.89-18.19,5.78-24.54,13.58-4.42,5.42-8.57,11.07-13.15,16.35-17.2,19.82-38.75,30.89-65.16,32.41-16.77.96-23.25,7.84-23.31,24.55-.03,7.98-1.87,14.72-7.33,21-9.84,11.29-14.37,25.34-18.49,39.47-3.17,10.85-6.35,21.71-9.99,32.41-1.6,4.67-3.93,9.23-6.71,13.31-4.73,6.96-10.91,7.95-18.14,3.36-3.08-1.95-5.84-4.4-8.72-6.67-9.88-7.82-20.58-13.45-33.64-13.31-6.58.07-11.42-3.56-15.07-8.55-18.28-24.96-37.42-49.29-47.16-79.5-4.2-13.03-9.92-25.57-15-38.33-1.69-4.25-3.3-8.53-4.77-12.86-3.33-9.83-7.68-17.88-16.28-24.03-5.97-4.28-5.92-7.9-.35-13.2,4.77-4.53,10.3-8.44,15.97-11.79,7.15-4.23,14.75-7.7,22.24-11.32,5.67-2.74,8.93-6.87,8.5-13.35-.44-6.56-3.63-11.37-9.8-13.86-7.68-3.1-15.43-6.01-23.16-8.98-.93-.35-2.27-.24-2.81-.86-1.8-2.09-4.79-4.59-4.55-6.61.24-2.14,3.36-4.52,5.77-5.68,2.25-1.07,5.21-.62,7.85-.95,3.52-.43,7.03-.97,12.41-1.73-3.55-2.68-6.83-5.07-10.12-6.92-4.82-2.7-9.67-4.22-15.43-3.74-3.24.27-6.66-.28-9.85-1.06-12.5-3.03-18.42-11.45-17.23-24.14.15-1.65.3-3.39.93-4.88,6.77-15.94,1.26-28.81-9.12-41.22-30.06-35.9-68.05-50.95-114.4-44.6-8.88,1.22-17.76,2.84-26.41,5.13-11.52,3.05-21.86,1.42-30.92-6.22-5.96-5.02-12.42-8.66-19.8-11.22-8.17-2.84-10.61-6.61-9.08-15.32,1.29-7.37-2.41-11.23-8.63-13.58-3.73-1.42-7.53-2.64-11.28-4.01-4.43-1.63-9.44-3.19-8.88-9.15.52-5.62,5.41-7.04,10.04-8.25,6.75-1.76,13.43-4,20.29-5.15,17.36-2.91,34.83-5.23,52.22-8.01,5.55-.89,11.17-2.02,16.39-3.99,1.8-.67,3.9-2.97,4.63-4.95.18-.48.27-.94.26-1.36-.05-2.32-2.61-5.32-4.88-6.67-2.41-1.43-5.74-1.43-8.7-1.77-5.84-.68-9.53-3.29-11.64-9.21-3.92-11.05-7.86-12.25-17.75-5.96-5.8,3.69-11.67,7.21-17.65,10.48-15.29,8.36-31.29,15.11-48.58,18.93-6.9,1.53-11.89,5.28-15.72,11.27-3.57,5.59-7.69,10.9-12.06,15.9-7.18,8.21-15.89,14.14-26.98,15.87-9.32,1.46-14.78,6.64-16.46,16.15-.68,3.83-2.35,7.71-4.43,11.03-4.67,7.46-11.65,10.77-20.46,9.14-3.9-.73-7.75-1.92-11.5-3.23-9.65-3.39-19.33-4.55-29.41-1.94-25.78,6.69-51.48,4.98-77.07-1.28-1.92-.47-3.96-.79-5.69-1.67-5.36-2.71-5.8-7.23-1.01-10.85,6.63-5.01,13.45-9.77,20.12-14.73.46-.34.92-.66,1.38-.95,6.5-4.05,13.46-3.21,20.8-.85-3.88-8.04-13.46-14.93-22.64-15.31-2.01-.08-4.04,0-6.06.2-3.89.36-7.78,1.08-11.64,1.66-9.16,1.39-18.24,3.8-27.45,4.41-15.67,1.04-28.73-5.36-38.49-17.45-4.84-5.99-10.55-9.97-17.58-12.5-1.24-.44-2.48-.93-3.69-1.48-14.97-6.8-18.21-16.1-9.9-30.37,2.43-4.16,6.07-8.07,10.04-10.79,12.61-8.64,34.67-7.88,47.2.87,2.7,1.89,5.5,3.9,8.56,4.97,4.81,1.67,9.27-.73,11.57-5.31,2.44-4.89-.75-7.48-4.08-9.85-3.51-2.5-7.22-4.7-10.78-7.12-.47-.31-.56-1.16-1.41-3.08,2.07-1.32,4.14-3.46,6.6-4.11,29.4-7.77,59.06-13.29,89.76-10.42,29.87,2.8,58.34-3.48,85.71-14.95,11.36-4.75,22.74-6.18,35.01-5.81,28.64.85,57.31.65,85.97.73,29.79.07,59.04,3.96,87.97,11,28.56,6.95,57.69,9.95,87,11.4,16.97.83,33.94,1.69,50.89,2.85,8.78.6,17.24.03,25.48-3.32,10.5-4.28,21.33-4.83,32.33-2.18,3.56.85,7.13,1.64,10.67,2.58,11.02,2.92,11.64,2.58,14.24-8.27,2.25-9.35,7.39-14.3,17.03-15.7,5.26-.76,10.61-.96,15.93-1.25,38.58-2.08,77.16-4.27,115.76-6.12,14.79-.71,29.59-1.63,44.39-2.14,19.83-.68,39.66-.62,59.45,1.72,14.46,1.71,28.72,5.46,42.89,9,20.32,5.09,40.34,11.42,61.42,12.94,2.38.18,4.66,1.74,9.05,3.48-3.96,3.92-6.38,6.11-8.55,8.52-3.96,4.4-4.59,9.76-1.97,14.75,2.53,4.82,5.39,5.91,10.66,4.87,20.51-4.07,41.03-8.08,61.59-11.91,9.36-1.74,18.78-2.86,28.22-3,6.5-.08,13.01.29,19.5,1.24,6.4.94,12.64,3.65,18.66,6.24Z"/>
      <path class="cls-1" d="m1491.94,407.32c7.03,4.18,8.62,8.03,4.22,14.63-7.57,11.35-15.54,22.46-23.85,33.28-4.96,6.46-8.74,6.77-15.17,1.18-11.06-9.61-21.61-19.81-32.38-29.75-2.34-2.16-4.74-4.27-8.73-7.86.56,17.94,2.74,32.53,18.54,40.99,8.77,4.69,14.06,12.05,16.43,21.56,1.28,5.16,2.68,10.34,3.35,15.59.94,7.46-1.52,10.97-8.66,13.66-1.55.59-3.16,1.04-4.78,1.4-3.01.68-4.97,2-6.17,4.15-.72,1.3-1.15,2.9-1.38,4.84-1.78,15.3-4.61,16.47-18.23,9.98-6.23-2.97-12.91-5.2-19.58-7.03-18.49-5.07-35.15-13.53-46.62-29.05-14.69-19.9-34.13-23.67-56.7-19.99-3.93.64-7.94,1.08-11.91,1.06-10.96-.06-17.54-6.52-17.18-16.83.03-.82.1-1.66.22-2.52.57-4.2,2.03-8.47,3.97-12.26,3.48-6.8,7.44-13.39,11.57-19.83,4.51-7.03,10.24-8.57,18.14-5.47.31.12.59.3.9.43,3.98,1.71,7.24,2.99,10.03,3.79,9.96,2.84,13.85-.62,22.55-13.67,1.3-1.93,2.7-3.8,4.02-5.72,5.69-8.26,5.49-13.31-1.19-20.41-9.69-10.32-21.08-17.04-35.78-17.4-10.62-.26-11.85-1.85-12.39-12.34-.49-9.74-4.32-15.48-12.9-17.78-3.31-.89-7.77-1.33-10.53.18-16.17,8.85-32.9,6.6-49.71,3.39-11.8-2.26-23.46-3.16-35.62-2.63-1.42.06-2.84.06-4.26.01-10.03-.34-20.15-3.18-30.24-4.54-16.98-2.28-29.58-11.49-39.21-25.02-11-15.44-10.93-28.74-.28-44.37,6.32-9.27,14.45-16.46,24.67-21.26,8.42-3.97,16.65-5.53,25.88-1.71,11.91,4.93,24.74,4.96,37.42,4.33,14.3-.72,28.57-2.02,42.87-2.78,6.3-.34,12.65,0,18.98.11,12.99.24,23.75,5.11,32.61,14.81,17.02,18.63,37.82,31.16,62.14,38.21,8.48,2.46,16.87,5.21,25.03,8.53,8.15,3.31,16.07,7.19,23.6,11.9,7.3,4.56,14.47,9.63,20.71,15.51,8.74,8.25,9.37,16.44,3.71,27.02-5.35,10.02-3.04,15.95,8.19,17.63,12.94,1.94,23.9,7.74,34.67,14.53,9.56,6.03,19.31,11.75,29.03,17.52Z"/>
      <path class="cls-1" d="m1428.65,1402.22c4.17,5.2,1.97,9.32-4.37,10.96-9.29,2.4-18.57,4.81-27.79,7.46-6.82,1.96-13.38,2.8-20.54.96-7.68-1.97-15.75-2.4-23.62-3.67-2.26-.36-4.54-1.02-6.61-1.98-3.26-1.52-5.88-4.4-4.3-7.84.97-2.1,4.35-3.98,6.87-4.32,13.28-1.8,13.3-1.62,10.29-14.7-.07-.29.14-.64.57-2.26,1.32-.65,2.73-1.82,4.25-2.01,17.73-2.23,35.34-2.26,51.66,6.16,5.13,2.65,9.97,6.72,13.59,11.24Z"/>
      <path class="cls-1" d="m1329.1,1368.89c8.47,4.16,10.67,6.93,9.4,12.07-1.14,4.64-4.67,5.79-12.99,6.71-24.04,2.67-43.37-7.18-61.11-21.82-3.59-2.96-7.17-5.97-11.05-8.52-7.55-4.96-15.84-5.79-23.64-1.26-7.96,4.61-15.61,4.26-23.97,1.81-5.99-1.75-12.31-2.38-19.44-3.68,1.55-9.78,7.18-16.04,15.37-19.84,18.11-8.42,36.54-9.2,55.04-1,11.54,5.12,23.21,9.99,34.58,15.47,9.56,4.6,18.77,9.92,28.14,14.92,3.22,1.72,6.4,3.53,9.67,5.14Z"/>
      <path class="cls-1" d="m1926.38,1814.19c6.3,16.89,8.05,34.16-1.65,50.1-9.32,15.3-20.16,29.7-30.69,44.24-5.86,8.09-12.4,15.68-18.73,23.42-5.32,6.5-7.83,13.67-6.73,22.21,3.88,30.22-2.21,59.01-13.49,86.86-5.5,13.56-11.7,26.84-17.77,40.16-4.59,10.06-11.29,17.04-23.66,16.48-3.81-.17-7.9,1.33-11.55,2.83-15.37,6.34-30.85,12.48-45.86,19.6-18.75,8.88-28.64,24.2-29.92,45-.29,4.65-.7,9.32-1.4,13.92-3.74,24.58-14.84,45.23-32.92,62.35-8.45,8-16.3,16.63-24.32,25.08-4.81,5.07-9.2,10.55-14.14,15.5-15.33,15.37-32.37,23.73-53.43,11.77-5.43,4.06-4.32,8.89-3.21,13.89,1.44,6.46,3.18,12.94,3.7,19.5.86,10.98-4.12,19.74-13.66,24.79-7.55,3.99-15.85,6.78-24.09,9.18-7.63,2.23-15.6,3.33-23.45,4.74-6.39,1.15-11.07,3.99-13.17,10.59-1.1,3.45-3.04,6.66-4.8,9.86-5.62,10.2-13.8,15.7-25.96,15.1-9.62-.48-11.78,2.28-9.65,12.01,4.39,20.01-1.87,36.06-17.38,48.87-3.85,3.17-8.02,5.96-11.93,9.07-8.72,6.94-8.39,12.9.98,18.62,2.27,1.38,4.74,2.46,6.95,3.94,7.86,5.29,9.07,10.74,3.35,18.45-3.74,5.05-8.34,9.49-12.73,14.05-4.39,4.55-9.16,8.75-13.47,13.38-15.59,16.79-16.28,36.38-5.18,57.25,5.1,9.6,13.81,15.1,24.11,18.14,3.5,1.03,7.38,1.43,10.4,3.25,2.12,1.29,4.12,4.46,4.23,6.87.08,1.84-2.56,4.98-4.56,5.56-41.65,12.08-81.12,9.42-116.11-18.92-17.42-14.11-25.84-33.53-29.79-55.06-6.39-34.79-.73-68.27,11.85-100.84,1.09-2.84,3.66-5.48,6.18-7.33,21.32-15.68,22.91-28.08,5.19-47.67-3.84-4.25-4.25-7.81-1.75-12.46,1.58-2.93,2.78-6.05,4.35-8.99,2.64-4.96,3.17-9.91,1.37-15.38-3.46-10.55-2.67-21.12,1.75-31.21,3.34-7.6,7.17-15.02,11.17-22.3,13.22-24.09,18.84-49.3,14.83-76.97-.43-2.98-.4-6.05-.1-9.16.62-6.42,2.4-13.01,3.59-19.38,8.82-47.18,14.68-94.75,18.91-142.52.79-8.84.41-18.05-1.15-26.79-3.22-17.97-13.87-31.42-30.66-38.03-31.21-12.28-51.21-35.11-64.64-64.65-8.54-18.78-16.61-37.78-24.6-56.8-8.96-21.31-19.36-41.64-35.59-58.55-6.45-6.71-8.65-14.03-4-23.56,5.04-10.33,4.36-22.03,4.07-33.41-.25-9.3-.42-18.65.11-27.93.61-10.6,4.9-19.93,11.68-28.13,7.65-9.24,15.44-18.38,22.72-27.9,4.23-5.52,8.2-11.4,11.2-17.65,6.25-13.01,5.2-25.89-2.99-37.89-2.42-3.56-5.16-7.04-8.32-9.93-11.57-10.6-20.35-22.77-23.89-38.38-1-4.42-3.34-8.02-8.93-7.61-5.04.37-7.93,3.18-9.13,7.81-.66,2.54-.82,5.23-1.14,7.86-.29,2.31-.21,4.7-.78,6.93-1.58,6.15-5.03,7.35-10.19,3.74-.81-.57-1.65-1.2-2.24-1.97-8.21-10.67-20.04-16.04-31.41-22.39-21.21-11.84-35.51-30.44-43.88-52.65-7.31-19.39-20.24-31.54-38.74-38.98-3.09-1.24-6.16-2.56-9.34-3.52-16.75-5.11-30.36-14.92-41.93-27.79-3.34-3.72-6.41-7.68-9.77-11.38-7.94-8.74-17.57-12.18-28.81-7.52-15.17,6.3-29.48,4.1-42.99-4-23.1-13.85-47.74-25.22-68.85-42.28-6.47-5.23-13.11-10.31-19.07-16.08-10.19-9.86-14.9-22.19-12.72-36.29,1.97-12.77-1.66-23.63-8.83-33.82-21.46-30.51-42.44-61.38-64.5-91.46-13.71-18.71-25.19-38.37-33-60.17-2.82-7.87-7.29-13.35-16.46-13.05-3.99,9.43-2.15,21.6,4.97,31.82,2.86,4.09,6.51,7.68,9.02,11.96,7.91,13.47,15.88,26.94,23.05,40.81,4.12,7.96,8.13,15.97,12.11,24.01,6.2,12.54,12.29,25.14,18.48,37.69.59,1.19,1.32,2.33,1.69,3.59.26.9.47,1.8.58,2.68.42,3.14-.28,6.05-3.54,7.92-4.46,2.57-7.35-.15-9.98-3.65-6.02-7.97-12.11-15.88-18.36-23.67-1.23-1.53-2.42-3.07-3.56-4.64-4.93-6.81-8.87-14.09-10.32-22.64-.9-5.31-3.93-9.03-8.17-12.04-5.16-3.66-10.39-7.24-15.37-11.13-8.64-6.75-9.38-10.85-4.21-20.48,3.76-6.98,3.82-9.41-2.1-14.82-11.17-10.22-17.77-23.07-23.17-36.85-2.46-6.27-4.91-12.55-7.44-18.79-2.83-7.02-5.77-13.98-8.92-20.85-5.17-11.25-13.18-19.78-25.88-23.21-8.41-2.28-14.32-8.47-19.05-15.45-24.5-36.14-43.92-74.53-51.55-118.06-4.65-26.56-4.53-53.1,1.14-79.43,2.32-10.81,1.69-21.07-1.15-31.52-1.49-5.45-2.69-11-3.67-16.56-1.57-8.82.2-11.36,8.98-13.21,4.54-.96,9.16-1.62,14.65-2.57-1.24-2.3-2.01-4.31-3.26-5.96-9.85-13.01-22.04-23.25-37.23-29.34-19.55-7.85-34.86-20.81-46.38-38.09-7.55-11.34-14.35-23.23-20.73-35.27-4.05-7.63-9-11.77-18.06-10.99-17.78,1.54-40.21-18.61-32.21-42.05,5.86-17.19.44-24.12-17.5-23.56-13.26.41-24.85-3.33-35.91-10.08-15.42-9.4-31.44-17.74-49.44-20.69-3.67-.6-7.37-1.08-11.09-1.45-7.52-.75-15.11-1.08-22.64-1.12-6.99-.05-13.07-1.58-18.96-4.95-3.18-1.82-6.35-3.76-9.75-5.04-6.34-2.4-12.53-2.42-17.25,3.43-5.67,7.02-13.01,9.88-21.89,9.94-8.8.05-16.82,2.17-24.22,7.72-8.53,6.4-13.41,4.85-18.29-4.34-2.58-4.83-5.22-10.11-11.66-8.84-6.11,1.21-9.51,6.19-10.29,12.21-1.88,14.5-10.55,23.83-22.19,31.51-15.27,10.07-30.21,20.63-45.25,31.04-7.62,5.28-13.12,11.97-15.32,21.36-1.76,7.47-3.26,8.01-10.5,4.64-9.21-4.28-18.59-4.82-28.22-2.19-7.05,1.93-14,4.22-21.01,6.32-2.54.76-5.07,1.68-7.68,2.12-3.74.64-7.56.82-8.89-3.97-1.21-4.38,2.06-5.81,5.08-7.31,23.24-11.58,46.5-23.09,69.68-34.77,4.14-2.09,8.51-4.27,11.74-7.46,3.16-3.13,6.04-7.31,7.19-11.53,2.31-8.54-2.21-13.2-10.98-13.36-12.26-.21-24.51-.79-36.76-1.32-7.74-.33-12.46-5.01-14.18-11.96-1.42-5.79-4.93-8.34-10.05-9.67-12.31-3.2-24.58-5.9-37.24-1.12-3.3,1.24-7.22,1.23-10.83,1.13-4.98-.14-7.77-3.39-8.99-7.99-1-3.82.18-6.59,4.33-7.46,2.27-.47,4.59-.7,6.89-1.09,3.97-.66,6.03-1.47,7.15-3.57.67-1.27,1-3,1.21-5.44.36-4.31.22-8.66.51-12.98,1.05-15.73,6.48-23.03,21.32-27.79,10.44-3.34,21.12-5.95,31.57-9.26,2.61-.83,5.9-2.61,6.88-4.83,2.01-4.54-.87-10.47-7.19-10.16-10.64.54-21.53-.36-31.87,1.63-21.4,4.1-35.77-6.72-49.04-20.66-3.52-3.71-2.53-7.26,2.32-9.5,3.27-1.52,6.91-2.34,10.45-3.2,13.74-3.37,25.77-10.28,38.34-17.67-3.63-7.49-9.3-10.14-15.31-12.38-4.66-1.73-9.39-3.34-13.91-5.41-3.88-1.78-6.3-4.89-5.94-9.5.33-4.18,2.97-6.5,6.56-8.03,28.76-12.24,57.34-24.93,86.33-36.61,31.29-12.6,63.51-12.1,96.28-5.89,25.14,4.77,50.6,7.94,75.99,11.25,40.24,5.26,80.84,8.07,120.38,17.94,4.84,1.21,9.76,2.38,14.31,4.34,11.06,4.77,21.9,4.05,33.12.54,17.45-5.46,35.01-10.59,52.63-15.48,13.29-3.69,26.95-4.41,40.63-2.9,5.63.62,10.48.12,14.86-3.81,3.99-3.58,7.94-2.83,11.26,1.16,5.85,7.02,13.69,9.15,22.35,8.99,14.63-.27,29.26-.56,43.88-1.2,11.51-.51,22.41.7,32.9,6.18,11.08,5.79,23.41,7.31,35.76,8.21,8.64.64,17.29,1.15,25.91,2.02,10.92,1.1,20.13,5.57,24.68,16.06,3.24,7.48,8.83,9.51,15.98,9.15,9.32-.48,18.61-1.65,27.93-1.8,5.67-.09,11.46-.21,17.1.31,2.57.24,5.11.61,7.59,1.17,6.48,1.47,10.04-.17,13.49-5.04,2.5-3.52,5.32-6.86,8.36-9.92,5.65-5.69,12.4-7.54,20.13-4.67,3.42,1.28,6.99,2.3,10.23,3.94,18.22,9.26,37.68,12.83,57.93,12.93,9,.05,18,.18,27,.19,2.32.01,4.75.08,6.94-.54,3.02-.84,4.85-2.42,5.43-4.43.58-1.99-.08-4.4-2.03-6.9-6.95-8.91-6.87-9.87,1.49-17.64,8.69-8.07,12.34-8.55,23.28-3.75,6.78,2.98,12.77,6.54,16.94,12.23,1.63,2.23,2.98,4.78,3.99,7.75,2.09,6.15,5.48,7.28,9.81,5.43,5.26-2.24,7.62-6.94,4.79-12.21-2.08-3.89-5.71-7.12-9.15-10.05-2.2-1.87-5.38-2.54-8.02-3.95-15.54-8.29-16.79-26.23-2.31-36.43,9.48-6.67,19.97-8.01,30.04-1.78,5.54,3.42,10.65,8.09,14.76,13.17,14.27,17.61,31.22,30.63,53.92,35.47,9.98,2.13,12.94,6.69,13.26,17.05.05,1.66-.13,3.34.06,4.99.51,4.32,2.79,7.51,6.87,9.04,4.47,1.68,8.74.91,11.77-2.9,6.2-7.8,12.83-15.37,15.2-25.51.75-3.22,1.37-6.83,3.27-9.33,2.01-2.63,5.36-5.65,8.33-5.88,10.62-.83,21.25-.37,31.53,3.37,9.76,3.54,16.36,9.75,15.85,20.45-.48,9.86-2.02,19.77-4.27,29.38-.89,3.77-4.76,7-7.67,10.11-4.09,4.37-8.96,8.05-12.74,12.64-5.22,6.31-4.79,11.29,1.64,16.37,8.87,7.02,18.18,13.49,29.67,15.82,4.27.86,7.41,3.11,6.48,8.32-.85,4.76-3.99,7.73-8.87,7.64-2.61-.05-5.23-.77-7.8-1.39-4.19-1.01-8.38-2.09-12.52-3.33-7.9-2.39-15.31-1.11-21.9,3.5-5.61,3.93-11.09,4.91-16.48,4.36-6.26-.63-12.4-3.3-18.52-5.74-4.69-1.88-4.25-6.13-2.33-10.23,5.78-12.42,14.22-22.44,26.15-29.38,2.53-1.46,5.06-2.92,7.85-4.54-12.19-7.69-21.94-7.24-29.15,3.14-11.02,15.89-26.33,26.01-42.34,35.8-14.47,8.84-28.68,18.19-42.42,28.12-10.35,7.48-18.15,17.54-24.04,29-5.66,11.03-5.27,21.77.99,32.35,6.93,11.72,16.09,21.22,28.35,27.41,4.75,2.39,9.6,4.73,14.64,6.34,15.62,4.97,30.26,11.97,44.63,19.79,15.82,8.6,32.21,16.01,50.13,19.22,4.57.82,9.22,1.22,13.84,1.8,6.45.82,11.93,3.62,13.5,10.15,3.08,12.86,9.05,23.45,20.53,30.52.47.29.56,1.17,1.08,2.36-.93,1.64-1.9,3.7-3.19,5.54-3.13,4.48-4.27,9.03-.86,13.84,3.69,5.21,12.96,8.43,18.76,6.62,5.34-1.67,9.68-7.03,9.72-12.64.02-2.6-.86-5.21-1.27-7.82-1.02-6.56-2.44-13.1-2.91-19.7-1.16-16.08,5.77-28.33,18.83-37.34,2.74-1.89,5.61-3.58,8.47-5.28,8.78-5.22,11.46-10.38,7.81-19.89-1.34-3.49-3.18-6.81-5.2-10.05-2.01-3.23-4.2-6.4-6.25-9.59-1.59-2.47-4.21-4.26-6.07-6.6-4.8-6.04-5.72-11.4-.9-17.29,7.94-9.67,7.03-19.51,2.9-29.99-2.72-6.93-4.3-13.96-2.42-21.46,2.08-8.27,4.92-11.11,13.52-12.21,16.83-2.14,33.46-.21,49.15,5.71,15.51,5.86,30.37,13.42,45.47,20.34,9.02,4.13,13.41,10.86,13.63,21.22.31,14.78,7.07,23.05,20.41,27.45,11.03,3.64,19.53,1.48,26.55-7.86,4.37-5.82,7.63-12.47,11.4-18.74,6.39-10.65,8.72-10.75,15.92-.55,7.86,11.16,15.65,22.38,23.47,33.57,1.21,1.74,2.37,3.49,3.46,5.27,5.87,9.59,9.82,19.85,10.38,31.58.46,9.71,8.88,18.81,19.29,20.1,16.1,2,28.69,9.94,40.1,20.63,5.11,4.78,10.59,9.19,15.42,14.23,13.17,13.72,11.15,27.6-5.57,36.64-13.75,7.44-27.76,14.43-41.84,21.23-1.52.73-3.03,1.43-4.56,2.1-22.77,10.01-46.43,12.95-71.17,6.74-10.38-2.61-18.86.29-25.14,8.91,2.29,4.43,5.15,6.05,9.36,4.69.64-.2,1.28-.55,1.92-.55,13.15,0,26.11,4.26,18.96,22.9-1.31,3.42-2.61,6.85-3.73,10.33-2.95,9.22-.64,17.21,6.5,23.51,3.45,3.05,7.45,5.66,11.58,7.72,13.27,6.6,22.53,3.8,30.6-8.82.18-.28.29-.6.48-.87,2.67-3.61,4.14-10.06,9.57-8.79,3.53.82,5.93,3.01,7.71,5.78,1.79,2.77,2.96,6.11,4.03,9.25,1.86,5.5-.83,9.93-5.77,12.45-14.8,7.54-29.58,15.19-44.71,22.05-7.02,3.18-14.1,5.84-19.54,11.58-1.35,1.42-3.07,2.62-4.83,3.5-3.84,1.93-7.75,1.85-11.32-.75-3.47-2.53-3.5-5.91-2.65-9.84.88-4.1,1-8.38,1.56-13.58-3.36,1.02-5.56,1.49-7.6,2.33-11.98,4.97-23.97,9.94-35.87,15.09-3.34,1.44-6.66,3.18-9.54,5.37-7.94,6.01-11.07,13.89-8.19,23.75,1.12,3.82,2.63,7.62,3.09,11.53.83,6.92-2.04,9.76-9.07,9.91-4.64.1-9.32-.15-13.91.36-11.38,1.27-19.81,7.46-25.82,16.92-2.84,4.47-5.07,9.34-7.47,14.09-4.94,9.8-9.62,19.73-14.75,29.42-7.2,13.61-11.68,27.6-7.6,43.15,2.45,9.36-1.68,16.35-8.55,21.89-11.14,9-22.58,17.63-33.91,26.4-1.58,1.22-3.24,2.33-4.87,3.49-22.6,16.05-30.5,38.2-25.37,64.75,3.59,18.59,8.76,36.88,13.54,55.23,2.18,8.4,1.9,16.45-1.31,24.45-1.84,4.59-4.64,8.35-9.96,8.6-4.97.23-7.76-3.28-9.89-7.25-5.19-9.68-11.01-19.1-15.28-29.17-3.45-8.17-5.09-17.12-7.39-25.75-.94-3.52-1.07-7.3-2.3-10.69-2.89-7.98-9.13-12.14-17.18-9.95-7.3,1.97-12.22.01-16.78-5.23-1.29-1.48-2.95-2.7-4.6-3.82-15.25-10.33-33.46-6.32-41.4,10.26-3.57,7.45-8.13,9.93-15.47,8.99-7.54-.98-15.28-1.46-22.51-3.6-12.07-3.58-24.2-5.5-36.41-2.45-18.41,4.6-30.11,17.58-38.83,33.62-1.05,1.93-1.61,4.57-1.29,6.72,2.84,19.53-1.17,38.52-4.5,57.52-4.15,23.68-1.58,46.45,8.31,68.32,3.84,8.48,8.08,16.79,12.35,25.06,5.64,10.9,15.03,16.05,26.99,15.38,8.58-.47,17.23-1.79,25.56-3.89,12.21-3.07,18.96-11.5,20.78-24.05,3.11-21.44,19.27-33.82,40.65-31.39,11.02,1.26,14.88,8.25,11.96,18.92-5.69,20.84-10.67,41.87-15.77,62.87-.69,2.85-.56,5.97-.46,8.95.39,10.85,5.9,16.64,16.66,17.16,5.31.25,10.65-.34,15.98-.33,1.33,0,2.61.03,3.84.08,29.67,1.28,34.56,17.55,31.86,38.67-1.64,12.88-3.75,25.71-4.76,38.64-1.63,20.83,6.17,37.73,23.01,50.32,8.85,6.61,12.99,6.88,22.73,1.27,2.32-1.34,4.53-2.43,6.65-3.27,10.83-4.3,19.42-2.09,29.6,7.15,3.44,3.14,6.39,6.83,9.91,9.87,3.75,3.25,7.62,6.56,11.95,8.91,7.96,4.32,14.89,3.11,20.41-4.1,3.78-4.93,6.95-10.67,8.95-16.55,4.95-14.54,14.33-23.27,29.36-26.99,5.89-1.46,11.18-5.56,16.6-8.69,4.3-2.49,8.18-5.8,12.64-7.94,6.07-2.91,9.6-.93,10.46,5.77.57,4.44.11,9.02.11,16,3.79-4.3,5.83-6.71,7.98-9.02,3.57-3.83,7.61-5.84,12.08-5.56,1.92.12,3.91.66,5.98,1.66,5.08,2.45,9.94,5.39,14.85,8.19,13.14,7.48,26.75,13.91,42.22,13.71,2.31-.03,4.64-.11,6.97-.26,5.98-.37,11.96-1.2,17.64-2.78,12.13-3.38,22.32-1.01,31.57,6.97,2.52,2.17,4.8,4.61,7.24,6.88,4.29,3.99,8.59,7.97,12.89,11.95,7.17,6.63,14.33,13.28,21.39,20.02,6.24,5.96,12.73,11.86,17.91,18.69,6.2,8.17,13.97,11.88,23.83,12.45,7.65.45,15.3.94,22.91,1.8,19.23,2.16,34.79,10.95,45.97,26.83,8.11,11.5,14.39,23.91,17.3,37.88,1.36,6.49,3.15,12.94,5.32,19.21,3.01,8.72,9.45,13.97,17.96,17.51,11.95,4.97,23.65,10.54,35.29,16.19,6.58,3.19,12.81,7.1,19.24,10.61,13.68,7.48,28.11,11.82,43.92,11.29,14.42-.48,27.61,4.13,39.76,11.5,8.24,5,15.89,10.97,24.04,16.14,10.66,6.76,21.41,13.41,32.4,19.61,5.23,2.94,9.24,6.65,11.28,12.12Z"/>
      <path class="cls-1" d="m3205.73,1525.13c.01.45.01.9.01,1.35,0,5.49-.69,11.22-2.46,16.33-20.14,58.17-48.65,111.06-98.03,150.07-20.41,16.12-37.37,35.11-51.14,56.97-10.1,16.05-19.46,32.58-29.2,48.86-1.77,2.95-2.69,5.66-2.12,8.43.34,1.66,1.22,3.35,2.78,5.12,5.01,5.68,6.48,13.03,6.88,20.47.21,3.98.3,8,.04,11.98-.89,13.99,1.91,26.67,9.22,39.08,9.65,16.38,9.76,34.99,8.24,53.47-.85,10.28-2.33,20.54-2.79,30.84-.43,9.46-4.59,16.67-11.85,22.04-5.04,3.73-10.56,6.98-16.23,9.66-15.63,7.39-28.76,18.08-40.42,30.51-11.91,12.71-14.99,27.87-9.71,44.52,1.31,4.11,3.15,8.05,4.86,12.02,6.67,15.44,2.45,29.95-11.62,39.19-3.33,2.18-6.99,3.85-10.5,5.74-11.53,6.2-18.57,15.75-18.06,28.89.72,18.46-7.54,32.58-19.02,45.74-8.53,9.79-16.31,20.28-25.19,29.73-9.77,10.4-19.74,20.84-30.86,29.72-17.01,13.57-36.9,19.5-62,16.83-10.11-1.62-22.6,1.45-35.1,5.47-7.21,2.32-14.74,4.58-22.21,4.95-14.71.73-24.59-7.91-27.32-22.29-.36-1.89-.68-3.83-.81-5.76-.05-.72-.07-1.44-.06-2.16.35-19-6.04-35.93-15.89-51.76-3.69-5.93-7.78-11.62-11.81-17.33-14.3-20.33-23.37-42.28-23.66-67.68-.24-21.29-6.44-41.36-16.18-60.24-4.26-8.28-8.8-16.46-13.8-24.3-14.93-23.41-18.12-48.4-9.85-74.63,3.59-11.37,8.79-22.24,13.36-33.3,2.41-5.83,5.26-11.5,7.53-17.38,4.15-10.73,4.06-21.65-.55-32.12-4.64-10.58-6.67-21.69-7.37-32.96-1.37-21.85-8.38-41.75-19.99-59.98-7.68-12.05-16.56-23.34-24.85-35-2.89-4.06-5.93-8.06-8.4-12.37-4.76-8.31-5.3-17.06-1.52-25.92,6.81-15.93,8.15-32.87,8.54-49.81.31-13.43-5.57-20.42-18.79-23.01-7.1-1.38-14.55-1.55-21.82-1.32-11.35.37-18.84-3.93-23.46-14.64-6.35-14.67-16.81-20.13-32.18-16.44-13.54,3.25-26.84,7.6-40.05,12.06-4.97,1.68-9.93,3.35-14.93,4.79-9.65,2.78-19.46,4.68-29.79,4.01-3.31-.21-6.75-.23-9.88-1.17-14.56-4.39-28.9-2.66-41.61,4.51-14.11,7.96-26.2,7.66-38.54-.41-1.46-.95-2.92-2.01-4.38-3.18-10.64-8.47-22.75-15.08-33.72-23.17-12.24-9.02-21.62-20.65-28.33-34.38-9.78-19.99-22.91-37.51-39.68-52.15-17.98-15.7-22.72-35.35-17.67-57.87,4.23-18.84,8.85-37.56,8.86-57.08,0-14.15-1.83-27.96-6.58-41.21-2.9-8.09-2.71-15.72.88-23.23,4.72-9.91,9.55-19.79,14.84-29.4,8.51-15.46,17.62-30.58,26.11-46.04,8.27-15.03,19.38-25.66,36.99-29.2,13.32-2.67,22-15.33,23.63-31.25.51-4.96.96-9.95,1.82-14.85,3-17.23,11.99-30.34,28.02-37.65,10.96-5,18.44-12.22,22.4-23.87,3.63-10.69,9.9-13.34,21.27-10.68,9.04,2.12,17.93,4.94,27.03,6.73,11.55,2.28,23.09.52,32.65-6,22.99-15.68,48.79-20.34,75.72-21.83,24.6-1.36,49.17-3.08,73.77-4.39,6.29-.33,12.74-.38,18.91.64,10.87,1.79,14.4,6.57,12.86,17.4-.93,6.52-3.36,12.82-5.04,19.24-1.1,4.16-2.74,8.31-2.98,12.54-.52,9.47,4.78,15.66,14.26,15.42,18.89-.48,34.93,6.82,50.57,16.2,7.03,4.22,14.12,8.33,21.26,12.36,6.18,3.5,12.38,6.93,18.61,10.32,3.73,2.02,8.05,3.22,12.25,4.05,8.28,1.64,13.25-1.18,16.64-9.02,1.05-2.41,1.66-5.04,2.28-7.62,3.71-15.61,15.89-23.94,31.84-21.17,4.85.84,9.61,2.7,14.13,4.74,22.2,10,44.88,18.61,68.8,23.46,13.23,2.68,26.39,2.27,39.36-2.39,19.42-6.98,27.6-2.52,32.53,17.7,3.9,15.99,10.93,30.64,18.09,45.32,7.73,15.83,14.81,31.98,22.28,47.94,5.21,11.15,10.33,22.36,15.97,33.3,10.24,19.87,19.2,40.17,24.83,61.93,4.28,16.52,11.1,32.24,21.39,45.92,4.41,5.87,9.35,11.38,14.48,16.72,2.94,3.06,5.94,6.05,8.93,9.04,7.07,7.04,15.21,12.98,22.33,19.97,8.71,8.55,14.5,18.87,17.09,31.03,3.21,15.06,10.53,18.5,25.55,14.58,3.77-.98,7.57-1.86,11.38-2.69,11.44-2.48,23.01-4.45,34.4-7.14,9.02-2.12,17.79-5.28,26.66-8.02,1.27-.39,2.41-1.16,3.68-1.56,8.48-2.69,13,.06,13.19,9.12Z"/>
      <path class="cls-1" d="m3194.34,1962.9c.56,2.73-.08,5.93-.92,8.68-1.78,5.85-3.61,11.69-5.45,17.52-2.75,8.73-5.54,17.45-8.23,26.2-8.7,28.26-17.29,56.56-25.92,84.85-1.85,6.04-3.41,12.18-5.54,18.12-5.09,14.17-16.48,22-33.53,21.83-6.76.18-13.96-3.53-18.96-10.94-7.57-11.22-12.05-23.67-13.23-37.18-.81-9.33,1.83-17.91,7.34-25.36,8.1-10.93,9.55-23.09,7.8-36.06-.89-6.6-1.93-13.19-2.42-19.82-.13-1.79-.18-3.5-.15-5.14.29-15.28,7.75-24.41,23.93-28.72,12.35-3.3,21.23-10.37,28.01-20.91,7.36-11.42,15.12-22.6,22.76-33.85,2.49-3.67,6.64-4.81,10.2-1.78,2.85,2.43,5.44,6.03,6.46,9.59,3.1,10.86,5.57,21.91,7.85,32.97Z"/>
      <path class="cls-1" d="m4644.91,2396.15c1.32,14.16-3.67,27.03-14.06,36.11-1.73,1.5-3.6,2.9-5.61,4.18-6.9,4.4-12.16,4-17.73-2.02-10.34-11.17-14.97-24.89-16.59-39.71-.5-4.64,2.14-6.76,6.75-5.94,2.24.4,4.36,1.52,6.53,2.32,12.05,4.48,19.81,2.44,28.36-7.44,1.88-2.17,3.83-4.29,6.58-7.35,3.28,6.73,5.18,13.43,5.77,19.85Z"/>
      <path class="cls-1" d="m4720.54,2158.97c6.95,34.2,2.84,67.19-16.46,96.89-12.45,19.14-23.38,38.69-28.7,61.08-2.87,12.04-10.52,20.36-20.94,26.76-24.5,15.03-51.16,17.81-78.96,14.75-8.94-.99-17.84-2.33-26.8-3.02-17.07-1.32-28.45-10.03-34.74-25.74-1.11-2.78-2-5.65-3.23-8.37-3.77-8.31-8.45-10.61-17.59-9.11-6.49,1.07-12.97,3.21-20.23.46-2.61-10.23,2.77-18.79,3.97-29.29-2.69,1.77-4.43,2.81-6.06,4.01-9.66,7.15-15.23,6.57-23.08-2.72-4.73-5.59-9.03-11.56-13.94-16.99-10.75-11.9-23.66-20.68-39.63-23.62-13.58-2.51-27.33-1.79-40.5,2.57-14.82,4.9-29.81,9.64-44,16.06-39.16,17.71-80.38,27.7-122.52,34.61-4.59.75-9.18,1.82-13.8,2.01-12.03.48-19.75-5.78-21.08-17.82-.64-5.82-.52-12.21,1.26-17.7,3.41-10.49,2.42-19.66-2.04-29.81-4.79-10.86-7.35-22.75-10.3-34.34-3.98-15.63-9.15-30.6-19.49-43.34-4.56-5.62-4.96-11.49-.06-17.23,4.08-4.78,4.65-10.15,2.78-15.92-6.46-19.99.84-35.37,15.14-49.32,18.01-17.56,40.2-23.85,64.16-26.61,6.25-.72,12.49-2.04,18.53-3.79,15.63-4.55,25.54-15.03,30.2-30.54.87-2.86,1.49-5.81,2.35-8.67,2.36-7.79,7.09-13.76,14.8-16.48,9.28-3.28,15.49-9.83,21.47-17.2,5.42-6.67,11.41-12.98,17.81-18.72,7.22-6.47,15.64-8.13,25.04-4.14,18,7.65,37.42-2.33,42.46-23.79.61-2.59,1.01-5.23,1.79-7.77,4.62-15.09,16.1-21.16,31.05-16.2,4.41,1.46,8.57,3.66,12.8,5.61,12.85,5.92,26.18,9.61,40.47,9.63,3.44.01,6.87,1.22,8.5,1.53.72,4.79,1.24,9.11,1.82,13.18.48,3.36,1.01,6.56,1.73,9.7,2.26,9.83,2.17,10.76-6.45,16.16-4.57,2.86-6.69,5.13-6.42,7.54.24,2.08,2.28,4.25,6.08,6.97,5.13,3.68,10.04,7.67,15.07,11.5,5.98,4.57,12.4,7.24,20.27,6.94,3.6-.14,7.59,1.72,10.9,3.57,15.28,8.59,20.52,6.03,22.67-11.68,2.65-21.8,5.1-43.63,7.84-65.43.58-4.59,1.95-9.1,3.11-13.6,1.1-4.26,3.71-7.21,8.34-7.29,4.14-.07,6.83,2.51,8.21,6.21,2.44,6.54,4.83,13.12,6.93,19.78,5.17,16.43,12.28,31.38,25.94,42.97,4.38,3.72,6.65,10.62,8.49,16.5,3.56,11.41,6.21,23.12,9.1,34.74,1.53,6.12,4.63,10.63,10.38,13.83,11.28,6.28,19.41,16.05,27.14,26.17,12.95,16.92,25.95,33.81,39.07,50.6,12.79,16.37,25.15,33.21,29.35,53.92Z"/>
      <path class="cls-1" d="m5092.51,2343.37c1.67,3.85-.34,6.84-2.63,9.98-1.69,2.31-3.36,4.65-5,6.99-4.28,6.05-8.43,12.19-12.57,18.32-2.61,3.85-4.81,7.98-7.37,11.87-6.21,9.44-14.9,15.28-26.17,16.34-5.76.54-9.14,2.82-11.03,8.24-4.09,11.7-12.18,20.5-21.38,28.4-12.13,10.42-23.93,20.96-33.1,34.45-3.8,5.59-11.14,9.34-17.58,12.46-10.22,4.96-20.6,9.37-28.48,19.05-4.17-4.44-5.82-9.22-6.78-13.98-.58-2.85-.9-5.69-1.38-8.45-3.32-19.12-.96-24.75,14.32-36.82,3.11-2.46,6.53-4.67,10.09-6.39,19.14-9.24,34-23.15,45.48-40.88.72-1.12,1.42-2.25,2.18-3.35,8.33-12.13,12.56-13.05,25.53-5.57,8.21,4.72,12.96,4.39,16.55-1.19,1.97-3.06,2.71-6.07-.35-8.98-2.16-2.06-4.26-4.2-6.33-6.37-6.08-6.36-7.4-11.19-2.02-17.65,11.07-13.28,8.3-25.62-.56-38.2-3.83-5.44-7.81-10.77-11.61-16.23-2.07-2.99-4.28-5.97-5.77-9.25-1.53-3.35-.42-6.47,2.54-8.86,3.42-2.74,6.55-1.28,8.86,1.21,3.38,3.63,6.29,7.72,9.17,11.77,5.02,7.05,9.51,14.5,14.87,21.27,9.66,12.2,22.14,18.94,38.2,17.59.99-.09,1.99-.06,2.99-.07,3.78-.01,7.58.31,9.33,4.3Z"/>
      <path class="cls-1" d="m4832.13,1857.76c6.03,4.55,7.35,12.21,4.23,17.84-2.72,4.9-10.3,8.08-16.62,5.86-3.04-1.06-6.11-3.93-7.57-6.79-.66-1.29,2.31-4.82,4.15-6.88,2.14-2.38,4.84-4.25,9.03-7.81-7.59-1.2-12.91-1.68-18.03-2.93-8.17-2-15.74-1.59-22.85,3.36-3.75,2.63-7.75,1.98-11.1-.71-15.77-12.63-28.33-27.99-37.8-45.8-2.12-3.99-2.26-8.32,2.66-12.68,2.05,1.6,4.66,2.95,6.32,5.05,10,12.63,23.14,20.8,37.65,27.08,10.66,4.61,21.52,8.8,32.03,13.75,6.26,2.94,12.38,6.5,17.9,10.66Z"/>
      <path class="cls-1" d="m4713.91,1780.66c.37,1.26.51,2.59,1.01,5.26-1.33,2.54-2.37,6.8-5.06,9.28-8.02,7.38-16.42,14.41-25.16,20.92-1.53,1.14-3.1,2.06-4.69,2.78-7.85,3.57-16.37,2.45-24.81-.23-5.35-1.69-7.38-4.73-7.07-9.41.35-5.24,4.19-6.42,8.25-6.97,4.27-.57,8.62-.44,12.9-.91,10.56-1.17,17.88-6.64,21.27-16.85,2.21-6.66.96-9.52-5.17-13.17-3.97-2.36-8.06-4.59-11.74-7.35-1.27-.96-2.49-3.88-1.93-4.94.9-1.69,3.23-3.45,5.11-3.64,2.34-.23,5.24.31,8.38,1.42,11.52,4.05,26.29,15.61,28.71,23.81Z"/>
      <path class="cls-1" d="m4674.81,1882.65c1.58,2.16,1.81,6.52.75,9.09-1.47,3.54-5.36,3.05-8.77,1.93-9.16-3-18.49-5.55-27.49-8.97-7.45-2.84-13.87-7.09-19.27-12.64-2.46-2.51-4.71-5.3-6.75-8.35-2.76-4.11-5.91-8.13-9.56-11.44-6.56-5.94-12.72-6.54-20.02-1.58-4.9,3.31-9.2,7.64-13.32,11.95-11.4,11.9-20.39,13.49-34.66,5.41-3.75-2.13-7.26-4.71-10.84-7.14-7.25-4.92-14.86-6.97-23.62-4.2-1.25.39-2.57.85-3.91,1.21-3.32.88-6.74,1.18-9.36-1.58-4.02-4.24-1.31-9.39.46-14.04,8.74-22.91,4-34.08-18.71-42.85-8.48-3.27-16.99-6.46-25.53-9.58-7.67-2.82-15.37-5.58-23.07-8.31-9.8-3.47-16.53-9.58-19.43-19.74-1-3.5-2.01-7.12-3.78-10.26-4.86-8.63-18.11-8.64-23.32-.28-.92,1.48-1.27,2.9-1.19,4.27.07,1.75.84,3.43,1.97,5.02,2.12,2.99,4.99,5.5,6.71,8.66,1.12,2.04,1.77,5.46.77,7.2-.97,1.7-4.62,3.3-6.54,2.8-9.26-2.42-18.28-2.26-27.6-.25-4.57.99-7.3-2.5-8.32-6.87-.99-4.24-.45-8.01,3.94-10.18,1.49-.74,3.05-1.36,4.62-1.91,16.61-5.81,24.87-17.98,26.81-35.02.33-2.88.86-5.73,1.43-9.45,7.92.93,15.71,1.45,23.24,2.7,7.54,1.25,14.81,3.23,21.71,7.06,8.65,4.8,13.7,12.42,16.37,21.75.83,2.88,1.18,5.89,2.07,8.74,1.48,4.76,5.27,6.78,10.05,5.65,4.17-.98,6.09-4.07,5.26-9.24-.63-3.93-2.1-7.75-2.54-11.69-.45-4.1-.1-8.29-.1-13.23,2.85.41,5.02.13,6.48,1.02,22.21,13.55,46.94,20.56,71.81,26.6,26.9,6.54,50.21,18.93,70.79,37.22,7.94,7.06,16.71,13.21,25.28,19.54,7.56,5.6,8.63,7.26,5.15,15.76-3.81,9.31-.67,16.24,6.21,22.16,7.32,6.29,15.13,12.03,22.32,18.47,4.94,4.41,9.62,9.27,13.5,14.59Z"/>
      <path class="cls-1" d="m4327.93,1854.37c1.35,3.95,0,7.58-3.87,9.15-17.21,7-29.86,20.89-45.72,29.88-3.21,1.82-6.55,6.44-10.48,2.76-4.13-3.85-.39-7.81,1.7-11.52,4.2-7.43,8.23-14.95,16.79-18.9-4.74-5.18-10.17-4.12-15.34-4.19-3.2-.04-7.15.98-8.1-3.59-.97-4.61,1.49-8.14,5.66-9.25,5.37-1.44,11.03-1.85,16.6-2.46,1.58-.18,3.27.44,4.89.79,10.49,2.26,19.98,1.61,25.97-9.92,6.78,4.52,9.68,10.71,11.9,17.25Z"/>
      <path class="cls-1" d="m4303.65,1740.58c4.83,1.66,6.7,5.23,5.58,9.16-1.22,4.31-4.77,4.53-8.03,3.83-4.83-1.02-9.5-2.78-14.23-4.22-6.63-2.03-13.14-4.98-19.93-5.86-8.69-1.14-13.8,5.22-11.91,13.77.77,3.51,2.43,6.89,4.02,10.16,4.07,8.37,8.37,16.62,12.49,24.95,2.91,5.89,2.43,9.22-1.55,12.49-4.24,3.47-8.76,3.81-13.55-.51-7.05-6.36-13.44-13.45-21.36-21.49-.96,5.48-1.35,10.39-2.75,15-1.31,4.29-2.87,9-5.79,12.2-4.64,5.1-9.64,3.79-12.42-2.6-1.58-3.63-2.63-7.54-3.52-11.41-7.2-31.3-2.5-61.54,8.87-90.98,4.67-12.07,12.42-15.59,25.62-13.01,10.79,2.11,21.58,4.66,32.56,1.5,4.45-1.28,8.82-2.9,13.1-4.66,2.84-1.17,5.6-2.82,8.19-.01,2.89,3.12,1.2,6.28-.72,9.07-6.39,9.3-15.48,13.1-26.58,13-8.3-.07-16.63.02-24.92.51-2.8.16-6.14,1.1-8.12,2.9-1.91,1.75-3.72,5.42-3.14,7.61.58,2.18,3.95,4.38,6.5,5.07,2.68.72,5.92-.03,8.76-.73,2.88-.71,5.67-1.96,8.34-3.29,5.12-2.54,9.1-2.63,12.66,2.96,4.14,6.5,11.1,9.29,18.31,11.21,4.49,1.19,9.14,1.88,13.52,3.38Z"/>
      <path class="cls-1" d="m3661.03,1597.43c.06,3.54-.39,6.54-1.32,9.04-2.87,7.74-10.34,10.64-21.59,10.01-4.54-.26-8.87-2.57-10.16-6.99-2.21-7.56-4.08-15.37-4.75-23.19-.23-2.71-.02-5.45.35-8.21.43-3.17,1.06-6.34,1.48-9.49.38-2.96.63-6.05,1.71-8.77,2.93-7.34,9.1-8.46,14.76-2.95,9.71,9.46,19.61,30.02,19.52,40.55Z"/>
      <path class="cls-1" d="m4206.08,1854.09c1.17,3.96.04,7.79-3.56,9.45-3.43,1.58-7.6,2.51-11.36,2.3-22.92-1.29-45.82-2.93-68.72-4.61-4.73-.35-9.48-.71-14.16-1.44-1.56-.25-3.11-.53-4.65-.87-24.97-5.47-49.85-11.35-74.8-16.94-7.83-1.76-13.8-5.12-16.7-11.34-1.13-2.44-1.79-5.31-1.91-8.69-.17-4.88-2.83-7.15-7.54-7.47-13.86-.93-22.89-9.34-31.06-19.53-8.08-10.1-16.53-19.92-25.22-29.51-2.22-2.44-3.85-4.11-5.27-5.01-3.15-2-5.26-.27-10.44,4.93-.66.67-1.55,1.1-2.7,1.9-1.3-1.09-2.83-1.9-3.69-3.16-5.6-8.26-11.24-16.5-16.51-24.98-.46-.75-.9-1.5-1.31-2.26-4.67-8.61-5.94-17.96-2.56-27.42,4.61-12.88.17-22.68-8.87-31.43-9.56-9.26-19.33-18.31-28.64-27.82-4.14-4.24-7.65-9.19-10.88-14.18-1.55-2.38-2.36-5.59-2.5-8.47-.01-.17-.01-.34-.01-.51,0-4.79,3.31-7.6,8.05-7.37,12.43.62,23.89,3.45,33.41,10.51,3.17,2.35,6.13,5.18,8.83,8.55,15.12,18.85,33.86,33.84,52.05,49.45,14.48,12.41,27.59,26.08,36.73,43.07,3.2,5.94,7.98,8.86,14.69,8.02,2.76-.35,5.27-.18,7.49.4,10.58,2.76,14.89,14.87,10.55,25.63-2.73,6.76-4.81,13.8-6.92,20.8-2.73,9.09.2,16.21,7.89,21.7,15.91,11.37,32.82,17.73,53.1,16.07,7.21-.59,14.5-.43,21.8.05,7.3.49,14.61,1.29,21.86,2,8.23.81,15.06,5.68,19.45,12.78,5.75,9.29,14.28,12.64,24.48,12.56,7.96-.06,15.93-.84,23.89-1.33,2.65-.16,5.3-.45,7.95-.63,3.71-.24,6.64,1.02,7.76,4.8Z"/>
      <path class="cls-1" d="m4210.02,1623.61c4.24,5.06,3.68,6.98-1.08,11.67-3.07,3.03-6.25,6.02-8.85,9.43-9.83,12.91-9.89,26.03-.48,40.7q7.87,12.26-2.1,22.3c-12.69,12.73-19.15,28.55-22.73,45.76-1.08,5.2-1.51,10.53-2.45,15.76-1.26,7-4.82,12.21-11.79,14.84-2.56.97-4.98,1.45-7.34,1.07-1.65-.26-3.27-.93-4.88-2.12-9.49-7.01-20.66-8.29-31.97-9.76-9.46-1.23-18.99-3.18-28-6.25-9.29-3.17-14.94-10.62-17.85-20.13-3.2-10.47-6.86-20.79-10.05-31.25-1.64-5.38-2.72-10.93-3.5-14.13-.04-11.18,3.45-15.87,11.97-18.41,1.4-.42,2.8-.97,4.22-1.15.2-.03.41-.05.61-.06,16.77-.91,29.7-9.55,40.38-21.38,13.19-14.61,27.41-27.98,42.36-40.75,6.45-5.51,11.51-12.8,16.59-19.73,5.37-7.31,7.36-7.3,12.89-.02,3.56,4.69,8.2,8.59,12.47,12.72,2.38,2.31,4.99,4.41,7.44,6.65,1.46,1.34,2.87,2.73,4.14,4.24Z"/>
      <path class="cls-1" d="m4319.11,1567.2c8.37,17.9,4.77,35.8-9.66,49.12-6.86,6.34-12.24,6.39-19.09-.3-2.84-2.77-5.03-6.18-7.52-9.29-1.87-2.34-3.52-4.9-5.64-6.97-5.88-5.75-10.67-5.75-16.36-.04-1.87,1.86-3.57,3.99-4.91,6.26-6.76,11.4-16.8,19.7-26.49,28.33-3.78,3.36-7.42,4.6-11.3-2.31,4.45-3.83,8.59-7.63,12.98-11.1,11.5-9.11,20.78-19.54,23.56-34.66.41-2.22,1.25-4.16,2.38-5.86,2.51-3.74,6.47-6.34,10.63-8.43,6.14-3.08,12.61-5.5,18.98-9.62-2.32-.26-4.63-.66-6.96-.76-14.36-.61-22.85-6.78-27.22-20.6-1.79-5.67-2.75-11.63-3.71-17.53-.78-4.81-3.06-8.11-7.85-9.15-4.8-1.05-8.5,1.25-11.12,5-1.49,2.13-2.59,4.68-3.27,7.2-3.34,12.27-10.27,22.26-19.15,31.07-4.97,4.93-9.91,9.88-15.03,14.63-2.83,2.62-6.13,4.55-9.5.73-2.96-3.34-1.17-6.43,1.38-8.72,14.39-12.97,23.12-29.94,32.98-46.11,5.6-9.19,9.65-18.94,9.88-29.96.17-8.49-1.25-16.68-5.07-24.19-4.74-9.34-4.53-18.7-.83-28.01,3.55-8.95,7.57-17.75,11.98-26.31,1.12-2.19,4.38-4.44,6.79-4.6,14.56-.91,24.72,12.85,19.28,23.93-2.72,5.55-3.98,12.02-4.84,18.22-2.19,15.81,2.46,26.22,17.06,32.44,12.05,5.14,20.59,12.86,26.91,23.79.17.29.33.61.57.82,7.74,6.64,10.4,13.91,7.39,24.29-.09.29-.18.59-.27.89-1.73,5.48,1.45,12.96,3.67,19.08,2.36,6.52,6.41,12.39,9.37,18.72Z"/>
      <path class="cls-1" d="m4600.98,806.97c.6,8.81-2.09,15.74-10.67,19.44-8.84,3.8-17.61,7.77-26.58,11.21-4.96,1.9-10.21,2.88-15.59.65-1.75-.73-3.94-.61-5.92-.51-3.22.15-5.24,1.09-6.05,2.75-.69,1.4-.51,3.32.55,5.71.54,1.2,1.31,2.32,2.07,3.41,11.04,15.83,12.48,33.39,8.74,51.61-2.81,13.67-6.5,27.15-9.59,40.76-1.25,5.5-1.76,11.17-2.93,16.69-5.32,24.97-16.78,36.31-41.81,40.09-7.7,1.16-13.59,2.98-17.9,10.28-2.51,4.24-6.27,7.01-10.55,8.89-3.33,1.48-6.97,2.41-10.59,3.1-12.75,2.43-25.41,4.64-37.13,10.83-5.82,3.07-9.25.68-10.36-6-.54-3.27-.2-6.71-.93-9.92-1.11-4.96-4.41-6.76-8.8-5.43-4.76,1.46-6.17,4.06-4.66,9.13.76,2.54,1.95,4.94,2.85,7.44,4.61,12.72,3.04,24.99-3.55,36.49-1.61,2.81-5.07,5.44-8.2,6.32-6.02,1.68-10.91-2.03-10.72-8.27.24-8.07-2.81-14.87-5.96-21.87-5.57-12.37-4.85-14.85,4.89-24.35,5.47-5.34,10.38-11.25,15.78-16.68,5.62-5.65,11.18-11.44,17.38-16.41,7.72-6.2,16.81-9.31,26.91-8.87,1.66.08,3.33.06,4.99.04,14.98-.2,24.27-6.47,29.81-20.54,2.16-5.49,3.71-11.21,5.86-17.83,2.91,1.11,4.41,1.74,5.95,2.27,12.98,4.44,19.89,1.48,25.46-11.21,5.78-13.15,10.58-26.59,10.85-41.21.01-.66,0-1.35.17-1.98,1.95-7.02,5.37-14,5.47-21.04.08-5.63-2.89-11.23-4.34-16.95-.26-1.04-.48-2.09-.61-3.14-1.4-10.92,2.43-21.16,10.8-27.74,10.32-8.1,13.25-18.47,14.1-30.37.17-2.32.22-4.69.76-6.94,1.73-7.22,7.68-9.37,13.59-4.83,2.08,1.59,3.76,3.77,5.37,5.86,7.89,10.24,17.92,16.5,31,17.97,7.5.84,9.58,3.75,10.09,11.15Z"/>
      <path class="cls-1" d="m4595.44,139.36c.71,5.53-1.21,9.63-6.64,12.19-9.78,4.61-20.08,6.78-31.02,5.96-7.93-.59-15.96-.94-24.36,2.94,2.52,7.57,7.39,10.52,14.24,11.74,5.14.91,10.12,2.93,15.03,4.82,1.78.67,3.42,2.17,4.66,3.67,4.17,5.08,1.95,11.03-4.62,11.31-10.64.45-21.33.49-31.97-.03-7.32-.35-10.43-4.78-9.81-12.2.14-1.65.71-3.25.96-4.9,1.86-11.83-2.2-16.34-13.95-15.55-3.32.22-6.64.68-9.96.61-7.83-.17-14.1-3.66-18.76-9.87-4.73-6.31-3.94-12.47,2.28-17.5,5.89-4.78,12.64-7.49,20.31-6.96,8.3.58,16.56,1.85,24.86,2.17,13.65.53,27.32.45,40.98.81,5.99.16,12.01.46,17.94,1.27,6.35.87,9.1,3.89,9.83,9.52Z"/>
      <path class="cls-1" d="m4006.85,74.07c3.74,4.42,1.5,10.22-4.17,11.56-2.23.52-4.64.4-6.96.35-22.1-.48-43.86,2.03-65.39,6.9-1.89.43-3.86.46-5.3.62-.83-.5-1.25-.6-1.38-.85-8.63-17.02-23.46-20.34-40.57-18.09-8.75,1.16-17.14.68-25.62-1.99-5.25-1.66-9.62-3.94-13.51-7.91-7.01-7.14-15.55-10-25.54-7.23-4.48,1.24-8.98,2.4-13.47,3.64-4.36,1.21-7.94,0-10.5-3.67-2.77-3.97-2.76-8.09.01-12.1.75-1.08,1.61-2.19,2.66-2.95,15.78-11.41,32.27-21.27,52.33-22.92,9.12-.75,17.89.47,26.3,4.34,5.43,2.5,11.04,4.64,16.63,6.79,18.9,7.24,34.58,17.47,36.51,40.25,6.1-3.17,11.12-7.42,16.66-8.27,7.69-1.18,15.89-.54,23.67.63,10.16,1.52,20.18,4.16,30.16,6.68,2.71.69,5.74,2.15,7.48,4.22Z"/>
      <path class="cls-1" d="m3199.67,29.5c4.63,6.91,3.98,17.88-1.35,23.2-3.92,3.92-8.42,4.01-12.69,1.14-6.59-4.43-13.01-7.25-21.39-4.7-2.91.88-6.92-1.63-10.36-2.78-8.82-2.95-17.55-5.99-27.15-5.22-2.05.16-4.25-1.61-6.38-2.49-.01-.78-.02-1.56-.02-2.35,2.43-1.36,4.71-3.24,7.31-3.99,9.29-2.69,18.71-4.71,28.42-2.08,9.13,2.47,17.69.68,26.12-3.13,9.2-4.17,13.57-3.45,17.49,2.4Z"/>
      <path class="cls-1" d="m3321,13.66c.35,3.84-.17,8.08-1.5,11.7-4.99,13.66-21.39,24.56-35.96,24.45-5.62-.63-11.24-1.83-16.85-1.75-4.8.06-9.59.4-14.39.8-3.79.3-7.6.65-11.4.92-1.65.12-3.32.34-4.97.25-4.55-.25-7.39-2.94-8.77-7.02-1.53-4.55,1.85-6.53,5.02-8.56,11.35-7.29,23.73-11.86,36.9-14.61,13.99-2.92,27.97-5.85,40.89-12.52,1.77-.92,3.39-1.36,4.81-1.36,3.5,0,5.78,2.71,6.22,7.7Z"/>
      <path class="cls-1" d="m3454.95,107.74c4.18.83,6.48,4.19,6.39,7.89-.07,2.89-1.74,6.29-3.79,8.41-1.91,1.99-5.16,2.91-7.99,3.77-20.04,6.07-40.2,11.62-61.13,13.85-18.77,2-36.18,8.44-52.81,17.07-19.31,10-36.61,22.95-53.25,36.84-1.02.85-1.97,1.79-2.9,2.74-11.55,11.77-10.73,21.73,2.61,31.55,1.88,1.38,3.88,2.58,5.78,3.92,3.16,2.21,5.87,4.83,4.23,9.09-1.56,4.05-4.95,4.9-9.01,4.43-3.95-.46-7.93-.57-11.9-.84-22.05.65-41.96-5.86-59.96-18.35-9.55-6.62-9.85-11.07-1.58-18.93,18.1-17.19,36.47-34.1,54.23-51.62,9.55-9.42,20.59-15.46,33.24-19.28,13.03-3.93,26.01-8.06,38.86-12.53,10.25-3.56,20.44-4.22,31.32-3.64,20.4,1.09,40.3-2.81,59.62-9.71,6.51-2.33,13.38-3.78,20.17-5.18,2.49-.51,5.3.01,7.87.52Z"/>
      <path class="cls-1" d="m5262.1,334.84c2.95,1.77,4.37,4.29,4.37,6.9,0,3.04-1.93,6.2-5.61,8.44-4.23,2.57-8.96,4.38-13.57,6.27-5.09,2.09-8.86,5.32-12.02,9.97-11.14,16.41-26.05,19.65-41.81,7.52-6.38-4.92-12.95-8.58-19.98-11.02-5.46-1.91-11.21-3.08-17.37-3.53-8.77-.65-16.79-4.11-22.63-11.89-2.11,1.66-3.93,2.6-5.07,4.06-1.96,2.54-4.13,4.74-6.49,6.66-3.94,3.2-8.43,5.62-13.48,7.58-12.96,5.02-15.74,14.51-8.71,26.44,1.51,2.58,3.46,4.9,4.95,7.5,3.38,5.9,3.09,11.27-.51,15.82-3.9,4.91-9.25,5.99-14.37,3.6-11.79-5.52-22.55-2.65-33.63,2.06-10.71,4.55-21.78,8.22-32.6,12.5-17.83,7.06-34.05,16.6-47.68,30.36-7.04,7.11-9.92,6.98-18.08.9-1.6-1.19-3.09-2.54-4.73-3.69-9.19-6.43-18.95-7.15-27.83-.31-10.18,7.84-21.2,10.48-33.7,9.22-10.42-1.05-18.83,3.11-25.38,11.16-1.47,1.81-2.67,3.84-4.23,5.57-4.38,4.88-7.18,9.47-7.27,14.53-.08,3.96,1.49,8.2,5.27,13.08,8.9,11.5,6.87,25.29-2.95,36.8-5.5,6.43-9.04,12.85-8.22,21.54.61,6.49-2.76,11-9.08,12.53-6.64,1.61-10.54,6.34-15.01,10.92-15.65,16.05-28.86,33.96-41.55,52.33-.94,1.37-1.95,2.73-3.13,3.89-5.28,5.24-10.87,4.53-14.77-1.93-1.02-1.69-1.87-3.59-2.32-5.5-4.39-18.44-9.25-36.8-12.86-55.4-4.92-25.27-.67-48.77,14.72-70.23,4.87-6.8,9.55-11.66,17.82-14.27,7.42-2.36,14.15-7.25,20.81-11.58,4.43-2.89,8.36-6.62,12.27-10.23,15.33-14.15,29.33-29.92,49.04-38.8-2.47-2.56-4.44-4.33-6.25-5.39-3.73-2.19-6.78-1.36-12.11,1.85-4.84,2.92-9.48,6.29-14.59,8.6-7.77,3.52-13.09,1.92-18.49-4.7-1.47-1.8-2.62-3.85-3.89-5.81-5.28-8.15-12.24-11.37-21.24-7.93-13.78,5.26-26.79,12.46-35.84,24.43-3.83,5.07-6.07,11.84-7.38,18.18-2.2,10.6-1.64,10.76-12.5,13.05-8.78,1.85-17.53,3.88-26.38,5.31-10.85,1.76-20.56-1.02-28.3-9.1-6.07-6.34-12.59-7.5-20.76-3.95-11.51,5-23.91,5.65-36.3,5.28-9.98-.31-19.95-1.19-29.93-1.66-19.07-.89-36.08,3.8-50.4,17.33-10.39,9.82-21.62,18.74-32.41,28.13-9.49,8.28-18.89,16.65-28.35,25.01,2.83,8.58,7.85,13.83,13.76,18.1,5.11,3.69,10.8,6.56,16.16,9.91,7.89,4.91,15.93,9.63,23.52,14.96,8.93,6.28,15.1,5.4,20.71-3.77,1.85-3.02,3.68-6.03,6.66-10.91,2.68,4.64,5.18,7.4,5.94,10.58,2.4,10.01,4.88,20.09,5.99,30.29,2.19,20.17,2.6,40.6,11.33,59.51,1.82,3.94.35,7.15-2.75,9.72-1.53,1.27-3.33,2.2-4.96,3.35-8.47,5.96-11.99,14.25-10.32,24.3,1.26,7.52,3.5,14.88,5.33,22.3.68,2.8,1.44,5.58,2.07,7.97-5.18,4.7-10.62,4.45-15.9,4.08-5.8-.4-9.05-3.46-10.1-9.28-.53-2.92-.44-5.97-.45-8.96-.03-23.32-.06-46.64,0-69.97.02-6.48-.47-12.64-6.31-16.94-2.31.49-4.1,1.37-5.39,2.63-1.8,1.74-2.62,4.2-2.47,7.3,1.48,29.24-10.07,53.82-26.04,76.76-1,1.44-2.02,2.87-3.06,4.3-16.81,23.18-33.86,46.21-50.92,69.21-10.24,13.82-23.66,21.62-41.29,19.23-18.81-2.54-27.02,4.49-35.74,21.93-1.33,2.66-2.18,5.58-3.05,8.44-1.02,3.35-2.44,6.32-4.5,8.83-1.6,1.96-3.6,3.65-6.11,5.01-3.45,1.88-6.56,4.61-9.34,7.44-7.68,7.84-10.3,17.31-6.04,27.52,3.05,7.29,7.32,14.13,11.55,20.85,8.53,13.53,12.71,27.78,8.78,43.73-4.43,17.97-23.24,33.98-40.8,34.7-12.31.51-16.67-5.66-13.6-17.57.81-3.14,1.25-6.38,1.54-9.66.34-3.64.48-7.32.74-10.95.56-7.9.59-15.85,1.17-23.75.4-5.36-.91-7.93-6.08-9.96-16.15-6.36-16.86-7.52-15.01-24.83,1.59-14.96-2.7-19.09-17.35-15.71-5.07,1.17-9.8,3.96-14.58,6.21-3.9,1.83-7.49,4.44-11.51,5.85-6.05,2.12-9.09.15-9.04-6.35.03-4.46,1.56-9.03,3.04-13.34,1.28-3.71,3.05-7.28,2.32-11.52-.25-1.51-.82-3.11-1.85-4.83-4.41,2.92-8.92,5.43-12.85,8.65-4.37,3.58-8.32,7.69-12.24,11.77-2.69,2.8-5.47,5.44-8.44,7.83-6.54,5.27-13.98,9.34-23.22,11.26,7.3,6.3,13.34,11.49,19.36,16.69,6.28,5.42,13.65,7.45,21.42,4.88,5.25-1.74,9.71-1.05,14.46.84,4.32,1.73,9.01,2.75,12.99,5.03,2.55,1.47,4.98,4.38,5.88,7.15,1.16,3.6-1.74,6-4.89,7.72-5.26,2.86-10.63,5.58-15.62,8.88-4.97,3.29-9.86,6.86-14.17,10.95-6.89,6.53-9.3,14.75-5.58,23.71,3.04,7.33,6.77,14.43,10.69,21.35,3.94,6.94,8.77,13.37,12.71,20.32,7.09,12.49,9.34,25.64,3.34,39.24-2.09,4.72-.92,7.82,2.46,11.51,9.17,10.02,10.57,18.67,2.67,29.73-13.09,18.33-21.72,38.9-31.97,58.66-8.15,15.71-17.36,30.71-28.98,44.18-11.07,12.82-24.11,22.81-39.65,29.66-14.91,6.58-29.25,14.72-44.63,19.82-9.45,3.13-15.99,8.56-22.74,14.94-9.39,8.87-16.4,8.43-22.42-2.86-5.17-9.68-10.27-8.69-18.96-4.71-21.34,9.77-35.37,45.2-22.02,66.99,5.91,9.66,11.46,19.57,17.95,28.82,8.31,11.84,15.99,13.4,29.31,7.32,2.11-.96,4.24-2.03,6.48-2.56,4.63-1.09,8.55.3,11.41,4.24,2.83,3.91,3.11,8.05.61,12.15-1.19,1.96-2.64,3.91-4.4,5.35-14.87,12.17-18.74,28.37-17.62,46.59.37,5.95.62,11.98.07,17.89-1.22,12.98-7.47,23.56-17.93,31.07-8.57,6.16-15.02,13.96-21.39,22.16-5.28,6.78-11.49,12.87-17.57,18.99-2.9,2.92-6.59,4.68-10.86,2.43-4.1-2.15-5.17-5.82-4.86-10.12.11-1.66.21-3.32.45-4.97,1.27-8.85-1.84-15.95-9.39-20.47-7.91-4.75-12.68-11.56-15.54-20.04-3.56-10.55-9.85-18.74-20.11-23.67-8.1-3.89-11.56-11.39-15.76-19.65-2.86,11.19-6.21,22.28-8.48,33.59-5.01,24.93-4.36,49.6,4.5,73.81,4.67,12.75,11.77,23.79,21.03,33.62,6.62,7.03,13.33,14.03,19.32,21.58,9.5,11.97,13.9,25.24,10.95,41.03-1.14,6.1,1.1,13.06,2.74,19.39,1.66,6.41,4.43,12.54,6.84,18.74,1.58,4.05,2.07,7.91-1.9,10.77-3.64,2.62-7.73,2.34-11.23-.06-6.58-4.51-13.3-8.96-19.23-14.25-16.94-15.1-27.14-33.96-26.9-56.93.21-19.75-6.58-36.41-18.37-51.58-8.19-10.54-13.36-22.33-13.81-35.73-.23-6.61-.21-13.52,1.41-19.86,6.84-26.63,4.13-52.8-2.17-79.03-3.89-16.17-7.16-32.49-10.71-48.73-1.14-5.24-3.03-8.17-5.75-8.8-2.35-.54-5.31.64-8.93,3.54-3.37,2.71-6.25,6.02-9.63,8.7-6.44,5.11-12.29,5.5-18.41,1.65-5.82-3.66-7.92-8.19-5.43-16.43,5.46-18.05,1.02-34.08-8.27-49.58-5.46-9.11-10.81-18.29-15.83-27.75-6.45-12.17-12.34-24.82-17.19-38.45-5.73,2.04-11.3,3.84-16.73,6.01-9.6,3.84-19.1,7.65-29.84,7.01-6.14-.36-10.58,2.78-13.48,8.47-7.34,14.39-17.74,26.55-28.59,38.34-7.22,7.85-14.7,15.46-21.72,23.49-29.29,33.54-46.92,72.21-52,116.68-3.21,28.09-11.13,54.8-27.67,78.29-2.86,4.06-5.96,8.08-9.55,11.48-4.89,4.62-10.05,4.78-13.83-.46-4.79-6.65-10.4-13.87-11.85-21.56-5.84-30.9-16.06-60.42-25.77-90.14-11.39-34.84-21.54-70.02-25.88-106.53-1.72-14.52-1.91-29.22-2.82-43.84-.08-1.29-.34-2.57-.6-4.51-3.49.84-6.59,1.75-9.75,2.3-4.56.8-9.15,1.64-13.77,1.94-9.58.64-15.99-4.19-19.19-12.86-1.95-5.26-3.39-10.85-3.99-16.41-.84-7.86-4.18-14.06-10.32-18.62-8.2-6.09-14.17-13.42-18.24-23.07-5.83-13.83-17.55-20.81-32.41-21.09-9.93-.18-19.99.63-29.82,2.12-24.03,3.63-47.09-.4-69.83-7.62-8.82-2.8-17.5-6.07-26.28-9.14-3.8,15.16,2.98,31.95,16.06,40.73,6.36,4.26,12.95,8.27,18.81,13.15,12.57,10.49,15.63,21.06,8.01,35.42-12.32,23.2-25.73,45.85-39.3,68.35-7.75,12.85-20.78,20.48-32.48,29.23-2.51,1.87-6.12,2.68-9.35,3.11-7.73,1.03-13.71,4.59-18.37,10.78-12.45,16.51-28.18,29.38-46.26,39.04-23.76,12.71-47.92,24.7-72.08,36.65-10.49,5.19-19.27,2.05-23.64-8.77-2.83-6.98-5.32-14.67-5.42-22.08-.63-49.1-18.32-91.55-49.06-129.06-5.89-7.2-9.61-14.47-9.91-24.22-.54-17.53-6.28-33.97-14.1-49.58-5.07-10.12-10.74-19.93-15.85-30.03-5.86-11.57-11.38-23.32-17.11-34.95-1.76-3.57-3.38-7.3-5.7-10.49-5.19-7.13-12.29-9.89-21.04-7.8-4.19,1-8.33,2.53-12.58,2.96-6.94.69-9.89-2.79-8.51-9.7.58-2.9,2.01-5.63,2.96-8.46,4.03-12,.5-19.9-11.2-24.96-2.75-1.18-5.7-1.92-8.37-3.24-4.08-2-5.5-5.33-4.65-9.92,1.78-9.64,8.4-15.89,19.18-17.59,5.26-.82,10.58-1.28,15.8-2.33,6.69-1.35,11.13-5.29,13.42-11.98,4.52-13.21,9.33-26.32,14.16-39.42,4.89-13.26,8.2-26.76,6.53-41.03-.31-2.63-.7-5.32-1.6-7.78-2.57-7.01-7.23-9.3-14.19-6.85-3.11,1.09-5.94,2.99-8.89,4.54-12.4,6.51-24.71,7.57-36.79-.74-5.52-3.8-11.17-4.08-16.86-.64-10.98,6.64-21.35,4.52-30.49-3.11-8.4-7.02-16.5-14.58-23.72-22.79-11.59-13.18-16.06-28.9-13.62-46.43.42-2.96,1.08-5.95.98-8.9-.16-4.34-2.43-7.27-6.67-9.03-3.94-1.63-7.15-.92-10.16,1.63-4.56,3.87-9.14,7.73-13.5,11.81-7.65,7.14-8.25,13.67-2.24,22.08.77,1.08,1.54,2.24,2.55,3.07,9.63,7.89,8.96,13.82,1.31,24.16-4.84,6.53-9.29,12.81-10.14,21.15-.42,4.1-3.37,5.84-7.16,4.83-3.46-.91-6.99-2.24-9.94-4.22-5.24-3.52-8.97-8.45-11.18-14.21-.32-.83-.6-1.67-.86-2.52-4.04-13.56-10.99-25.64-18.02-37.74-4.17-7.19-8.61-14.4-11.39-22.16-2.86-8.02-4.67-16.63-5.47-25.12-.58-6.17-2.2-11.19-5.34-15.29-2.44-3.19-5.79-5.82-10.3-8.01-9.16-4.45-17.74-10.52-25.66-16.99-9.26-7.57-17.43-16.47-26.26-24.58-6.82-6.27-14.14-11.9-22.78-15.9-5.04,6.72-4.32,12.87-1.47,19.36,8.5,19.36,21.07,35.38,38.22,47.82,11.05,8.02,22.02,16.16,32.92,24.4,3.7,2.8,7.2,5.92,10.5,9.19,3.2,3.16,3.81,7.12,1.32,10.94-2.78,4.28-6.31,2-9.71.62-3.87-1.57-7.81-2.94-11.89-4.46-.44,1.68-.87,2.38-.67,2.73,9.49,16.97,2.47,30.88-12.95,43.26-5.24,4.22-9.46,8.02-10.32,14.87-.24,1.92-1.21,3.82-2.12,5.58-3.41,6.65-7.07,7.87-13.78,4.1-3.91-2.19-7.81-4.41-11.66-6.71-3.84-2.31-7.63-4.7-11.3-7.25-2.3-1.6-4.52-5.53-4.2-8.07.32-2.55,3.5-5.27,6.09-6.85,2.08-1.27,5.13-1.2,7.76-1.25,4.66-.08,9.33.25,13.99.31,15.08.19,23.77-9.83,20.16-24.6-1.43-5.86-4.95-11.63-8.84-16.35-3.96-4.78-9.45-8.34-14.45-12.2-8.7-6.71-17.73-13.02-26.29-19.91-14.13-11.37-26.07-24.69-35.03-40.62-6.39-11.36-12.53-12.91-23.73-6.02-5.65,3.48-10.81,7.76-16.14,11.75-11.06,8.28-22.39,10.24-35.45,3.91-13.45-6.51-22.43-.65-22.46,14.14-.02,8.91-3.63,15.32-10.47,20.38-6.16,4.55-12.62,8.73-18.49,13.63-12.71,10.6-20.24,24.19-19.15,40.97.22,3.39-.03,6.63-.66,9.71-3.35,16.42-17.53,28.28-29.71,32.91-9.95,3.78-20,7.26-29.98,10.95-15.54,5.75-29.7,5.54-42.25-7.46-3.04-3.15-8.87-3.83-13.58-5.03-2.83-.72-5.97-.18-8.96-.36-4.08-.24-6.73-2.27-8.02-6.28-2.77-8.54-5.8-16.98-8.57-25.52-1.38-4.28-2.34-8.7-1.99-13,.21-2.55.88-5.06,2.19-7.47,8.01-14.77,6.27-30.25,4.59-45.89-.78-7.27-1.42-14.61-1.24-21.9.29-11.99,5.1-17.6,16.64-20.31,3.86-.9,7.9-1.65,11.83-1.55,18.62.46,37.24,1.22,55.86,1.91,2.66.1,5.31.53,7.97.6.73.02,1.44.02,2.13-.01,12.37-.29,18.68-6.19,19.6-19.03.56-7.94.51-16.03-.31-23.94-1.39-13.24-7.59-24.07-18.86-31.5-4.71-3.1-9.86-5.52-14.75-8.35-3.16-1.83-6.5-3.51-9.22-5.88-3.7-3.22-5.6-7.48-3.99-12.55,1.54-4.85,5.6-6.43,10.05-6.93.5-.06.99-.1,1.49-.15,3.48-.29,7-.25,10.49-.28,15.38-.12,17.34-1.56,22.19-17.21,8.58-.97,18.28,4.26,26.65-1.48,2.68-1.84,5.31-3.75,7.94-5.72,4.86-3.63,9.72-7.46,14.87-11.34-6.83-2.44-16.4-3.22-28.2-1.36-9.87,1.56-19.73,3.26-29.57,5.01-10.77,1.89-21.53,3.84-32.31,5.7-4.14.71-9.05,2.89-11.72-2.07-2.45-4.56,1.89-7.13,4.54-9.97.45-.49.97-.91,1.44-1.38,9.09-9.16,9.02-11.82-.46-21.12-.46-.45-.71-1.12-1.42-2.28,8.24-16.08,6.8-32.94,1.37-49.86-2.58-8.03-6.63-15.13-12.28-21.51-2.51-2.82-4.04-6.71-5.32-10.36-1.31-3.74-1.63-7.81-2.61-11.67-2.11-8.32-7.09-14.15-15.28-17.12-2.1-.77-4.09-1.86-6.83-3.12,1.32-3.86,2.36-7.3,3.66-10.64,5.25-13.38,5.72-13.65,19.83-11.38,9.4,1.51,17.95-1.01,25.6-6.13,5.22-3.49,9.71-8.08,14.71-11.93,2.67-2.06,5.74-3.6,9.81-4.93-1.62,14.15,5.35,25.03,10.37,36.53,3.48,7.96,3.14,15.74-2.55,22.53-3.85,4.61-2.79,7.98.73,12.16,4.69,5.55,8.87,11.56,12.95,17.6,3.72,5.51,6.91,11.38,10.52,16.98,8.03,12.44,17.72,23.24,30.3,31.39,8.55,5.54,8.89,11.18,1.89,18.76-.9.97-1.92,1.84-2.89,2.75-2.93,2.76-4.49,5.99-2.32,9.79,2.13,3.74,5.69,6.47,9.92,5.12,11.14-3.56,23.06-7.38,28.39-18.7,8.57-18.19,23.23-27.62,41.51-33.09,4.78-1.43,9.64-2.69,14.24-4.56,11.01-4.47,14.52-11.27,11.88-22.98-1.54-6.81-3.82-13.45-5.35-20.26-3.07-13.76.73-21.27,13.36-27.58,3.87-1.93,7.62-4.08,11.37-6.22,4.25-2.42,7.32-1.37,10.21,2.51,8.08,10.81,8.01,22.02-.54,32.89-9.34,11.89-5.32,23.51,9.8,26.02,10.54,1.75,20.79,4.11,31.02,7.08,10.84,3.15,21.8,1.18,32.54-1.61,9.97-2.6,19.83-5.88,29.95-7.63,7.06-1.22,14.6-1.25,21.72-.28,17.33,2.38,30.52-7.65,30.96-25.27.23-9.23,1.77-17.81,6.34-25.83,6.39-11.22,12.56-13.02,23.78-6.79,1.16.64,2.23,1.47,3.39,2.12,3.31,1.85,6.72,3.35,10.13.31,3.53-3.16,5.04-7.09,3.34-11.67-.92-2.45-2.23-4.83-3.75-6.98-4.49-6.36-6.18-12.88-3.66-20.68,2.34-7.22,1.09-9.55-6.08-12.21-7.63-2.83-14.53-6.56-20.33-12.29-16.83-16.62-17.85-40.94-1.79-58.31,5.13-5.55,11.83-9.64,17.76-14.47,7.74-6.29,15.6-12.45,23.05-19.06,3.07-2.72,6.2-6.22,5.29-10.56-.12-.52-.28-1.06-.52-1.6-2.37-5.48-7.87-5.57-12.92-5.32-4.31.22-8.62.8-12.88,1.53-9.69,1.64-16.79,6.9-19.39,16.49-3.94,14.53-13.25,23.16-27.15,28.11-14.07,5.01-24.16,15.13-31.78,27.69-7.12,11.73-5.81,20.93,3.84,30.63,2.82,2.83,5.93,5.41,8.49,8.46,6.53,7.78,6.58,13.84-.15,21.3-3.31,3.69-7.25,6.87-11.18,9.93-7.95,6.17-13.25,13.17-13.8,24.1-.72,14.03-7.88,25.4-19.69,33.16-6.92,4.54-14.3,8.52-21.86,11.9-10.7,4.79-15.3,2.71-18.62-8.52-4.18-14.14-9.69-27.62-17.3-40.24-1.71-2.85-3.37-5.75-5.33-8.44-6.52-8.94-12.87-11.3-23.46-7.76-7.23,2.41-14.15,5.8-21.14,8.9-15.18,6.74-24.35,5.2-36.24-6.28-29.07-28.03-22.73-75.87,12.82-95.19,8.75-4.76,17.99-8.65,27.08-12.79,22.35-10.19,40.74-24.75,53.96-45.91,9.19-14.7,19.98-28.32,34.87-37.75-1.1-2.1-1.92-3.66-2.65-4.8-2.21-3.41-3.63-2.97-9.36-1.49-2.92.76-6.83,3.61-8.56-1.07-1.52-4.14,2.43-5.23,5.35-6.98,5.97-3.58,11.79-7.49,17.34-11.71,7.16-5.44,14.67-9.08,23.99-7.5,4.54.77,8.38-.74,11.88-3.85,17.99-16,39.96-21.95,63.19-24.4,9.27-.98,18.64-1.11,27.87-2.37,5.86-.8,11.69-2.55,17.28-4.56,20.89-7.51,42.08-10.89,63.46-3.04,8.95,3.28,18.26,7.38,25.37,13.48,14.29,12.24,30.97,16.64,48.73,18.15,23.17,1.97,45.15,7.93,66.32,17.29,11.57,5.11,23.17,10.14,34.72,15.29,11.11,4.96,13.89,10.48,11.03,22.21-1.02,4.18-2.52,8.24-4.12,13.38,2.46-.49,4.58-.65,6.5-1.36,3.11-1.16,6.08-2.68,9.12-4.04,11.9-5.3,13.01-5.41,27.04-2.36.25-2.91,1.05-5.77.62-8.41-1.55-9.37-3.5-18.66-5.35-27.98-.98-4.92,1.46-7.88,5.81-8.91,3.49-.83,7.46-1.46,10.84-.64,7.7,1.87,15.51,3.97,22.66,7.3,8.29,3.86,8.47,10.44,1.37,16.44-.51.42-1.14.7-1.66,1.1-6.88,5.34-6.48,10.08,1.44,13.75,6.45,2.99,12.03,1.17,17.49-3.22,10.07-8.1,20.51-15.72,31.45-24.04-2.25-4.18-8.37-4.81-12.78-7.79-6.54-4.42-8.15-9.92-4.18-16.16.99-1.55,2.72-3.05,4.43-3.64,2.02-.7,4.06-.99,6.06-.91,6.86.29,13.07,4.96,15.19,12.05,3.46,11.53,5.13,12.61,16.88,10.61,8.2-1.39,16.35-3.83,24.57-4.05,7.09-.19,14.75.9,21.26,3.59,7.6,3.15,14.66,3.78,22.27,1.6,6.71-1.93,13.38-4.03,20.11-5.9,14.38-4.01,28.77-5.48,43.41.96,2.16-7.44-.68-12.62-6.05-16.67-2.37-1.77-5.39-2.65-7.84-4.33-2.98-2.05-6.23-4.11-8.3-6.94-1.24-1.71-1.43-5.5-.32-7.23.97-1.53,4.65-2.56,6.68-2.04,30.24,7.84,60.48,15.74,90.57,24.14,14.45,4.04,28.25,9.93,40.8,18.39,1.87,1.27,4,2.14,6.72,3.58,1.35-6.85-1.04-11.62-5.06-15.78-1.84-1.91-4.06-3.44-6.07-5.19-12.98-11.36-14.22-32.21-2.54-44.79,2.59-2.79,5.2-5.57,7.83-8.34,4.69-4.96,9.44-9.87,14.26-14.7,9.7-9.73,21.18-16.14,35.03-11.36,7.61,2.63,14.28,8.21,21.06,12.91.41.28.8.58,1.18.9,2.66,2.2,4.8,5.12,7.42,7.44,6.18,5.49,10.86,5.33,16.14-1.13,2.88-3.53,4.77-7.86,7.56-12.61,11.46,6.54,23.72,3.44,36.26,2.19,9.59-.96,19.14-.52,28.33,1.89,5.5,1.44,10.87,3.59,16.04,6.58.84.48,1.77.81,2.69,1.12.24.08.59-.16,1.45-.42-.88-4.73-2.14-9.51-2.6-14.36-1.06-11.23,2.82-16.43,13.91-17.58,9.92-1.04,19.94-1.34,29.93-1.42,16.37-.15,30.02-4.97,38.84-19.88,4.23-7.16,11.88-9.71,19.29-11.44,19.76-4.61,39.59-8.96,59.52-12.69,18.37-3.44,36.85-4.24,55.68-2.55,33.57,3.02,64.73-5.08,93.01-23.81,5.25-3.47,10.8-6.67,16.58-9.13,15.3-6.53,30.18-6.4,44.22,1.43,1.71.95,3.41,2.02,5.09,3.2,11.02,7.75,23.25,11.35,36.65,10.97,9.32-.27,18.65-1.32,27.95-1.06,10.23.28,20.76.39,30.59,2.84,17.11,4.27,23.62,16.23,20.07,33.35-.4,1.95-1.04,3.86-1.58,5.78-3.63,12.88,4.19,24.14,17.58,25.04,2.94.2,6.09.04,8.9-.77,18.88-5.46,36.2-1.68,52.56,8.36,3.12,1.91,6.18,3.93,9.25,5.93,9.32,6.08,19,8.14,28.4,6.2,5.53-1.13,10.96-3.65,16.18-7.55,1.34-.99,2.7-1.99,3.85-3.18,10.96-11.35,24.01-14.32,39.32-11.18,6.51,1.33,13.15,2.06,19.79,2.76,3.96.42,7.92.82,11.86,1.34,3.62.47,7.26,1.03,10.8,1.92,13.72,3.44,19.46,10.77,19.72,24.9.05,3-.23,6.02.07,8.99.84,8.22,7.11,15.3,15.59,17.64,7.96,2.21,14.31-.28,19.39-6.75,2.4-3.06,5.31-5.73,8.29-8.9,12.87,8.71,26.34,7.6,39.99,5.11,9.25-1.69,18.41-1.58,27.79.08,6.04,1.06,12.62.67,18.69-.47,6.99-1.31,11.84-6.49,13.83-13.19,2.1-7.14,6.77-8.55,13.36-9.33.14-.02.28-.03.42-.05,36.58-4.32,72.89-1.37,109.16,3.37,3.3.43,6.65.54,9.96.91,8.1.91,15.26,3.45,21.52,9.28,12.69,11.84,28.46,17.28,45.47,18.14,12.26.61,24.61-.6,36.92-.93,9.65-.25,19.36-1.12,28.95-.42,16.46,1.21,31.1,7.27,42.33,19.87,6.03,6.76,12.84,9.04,22.13,8.32,13.57-1.06,27.32-.42,40.96.14,17.76.72,35.16-.08,52.26-5.86,12.54-4.24,18.37-.78,23.23,11.53,1.2,3.05,2.61,6.19,4.65,8.7,2.53,3.11,6.28,3.6,10.05,2.14,1.55-.6,2.65-1.48,3.41-2.57.98-1.42,1.42-3.21,1.54-5.3.27-4.39-2.76-10.23,2.55-12.7,3.58-1.66,8.46-1.05,12.7-.72,31.18,2.47,62.53,3.42,93.28,9.98,10.88,2.32,21.43,5.49,31.65,9.53,7.95,3.15,15.7,6.82,23.28,11.05,7.8,4.35,16.14,7.88,24.53,10.99,12.9,4.78,25.44,9.82,35.04,20.31,4.29,4.69,10.27,3.56,15.97,3.42,7.26-.19,15-1.24,21.67.84,9.37,2.94,18.27,7.87,26.76,12.98Zm-1994.08,848.57c5.91-7.99,3.7-13.53-6.17-15.69-2.92-.65-5.87-1.17-8.82-1.66-18.36-3.07-32.78-12.65-43.71-27.35-4.74-6.36-8.32-13.58-12.39-20.44-3.39-5.71-6.3-11.77-10.19-17.11-5.29-7.25-11.49-8.52-18.21-4.73-6.53,3.68-8.95,10.07-5.86,17.99,5.8,14.85,11.06,29.99,20.87,42.93,1.55,2.03,2.49,4.67,3.18,7.17,2.82,10.27,2.75,10.29,13.6,11.53,8.8,1,11.7,4.22,11.37,13.04-.16,4.31-1.05,8.62-.99,12.92.09,6.93,3.19,10.39,9.85,11.69,2.28.44,4.63.54,6.95.79,10.85.69,19.47-3.38,26.01-12.02,4.82-6.36,9.77-12.64,14.51-19.06Z"/>
    </g>
  </g>
</svg>